<svg width="97" height="90" viewBox="0 0 97 90" fill="none" xmlns="http://www.w3.org/2000/svg">
<path d="M12.1851 14.8373L17.465 15.9392L18.2242 12.3016L28.1392 14.3709L28.9656 10.4109L19.0506 8.34168L19.3955 6.68917L30.6305 9.03385L31.5263 4.74137L15.0113 1.29479L12.1851 14.8373ZM33.052 5.03874L30.2258 18.5812L35.5057 19.6831L38.332 6.14064L33.052 5.03874ZM41.1311 6.73531L38.3048 20.2778L43.5848 21.3797L44.2745 18.0747L48.9902 19.0588L50.8498 22.8959L56.4723 24.0692L54.3128 19.6544C55.2857 19.4263 56.1315 18.9509 56.8359 18.2461C57.5524 17.5334 58.0179 16.6632 58.2303 15.6455C58.8552 12.8527 56.9773 10.0108 54.1798 9.4585L41.1311 6.73531ZM52.0233 13.1409C52.6682 13.2755 53.0749 13.8966 52.9403 14.5415C52.8751 14.8539 52.7075 15.1028 52.4274 15.2862C52.1594 15.4616 51.8642 15.5157 51.5418 15.4484L45.1031 14.1046L45.5846 11.7972L52.0233 13.1409ZM65.1605 16.3978C65.3855 15.3196 67.4512 15.4984 69.0937 15.8411C70.7462 16.186 72.0942 16.7302 72.4759 17.9245L78.0077 19.0789C78.3871 14.7418 74.5588 13.3855 69.8192 12.3648C65.0632 11.3723 60.4361 11.374 59.6286 15.2433C58.912 18.6268 64.1675 19.997 67.9062 20.977C70.0112 21.5215 71.6347 21.955 71.5107 22.5495C71.292 23.5974 69.2199 23.4489 67.5775 23.1061C65.925 22.7612 64.5812 22.1969 64.1953 21.0228L58.6634 19.8683C58.2904 24.1753 62.1103 25.5718 66.8541 26.5723C71.6101 27.5649 76.235 27.5732 77.0425 23.7039C77.7613 20.3103 72.5058 18.9401 68.7671 17.9601C66.6621 17.4157 65.0364 16.9923 65.1605 16.3978ZM87.8276 30.6234L89.758 21.3734L96.0355 22.6835L96.9313 18.391L79.0963 14.6689L78.2005 18.9614L84.478 20.2715L82.5476 29.5215L87.8276 30.6234ZM31.8156 25.2221L27.419 25.682L26.5232 29.9745L30.9198 29.5146L29.8158 34.8047L25.0296 33.8058L24.2032 37.7658L38.7332 40.7981L39.5596 36.8381L35.1059 35.9086L37.1057 26.3261L31.8156 25.2221ZM52.3384 37.076C51.88 39.2726 50.1328 39.3812 48.4803 39.0363C47.6641 38.866 46.8753 38.5646 46.3183 38.0593C45.7613 37.554 45.4991 36.7948 45.7284 35.6965L45.9344 34.709C46.3908 32.5225 48.158 32.4181 49.7904 32.7588C50.6267 32.9333 51.4076 33.2225 51.9646 33.7278C52.4972 34.249 52.7737 34.9902 52.5445 36.0885L52.3384 37.076ZM53.9049 29.8215C52.8571 29.3505 51.7172 29.0179 50.6189 28.7887C49.5206 28.5595 48.3429 28.4084 47.2042 28.4231C46.2876 28.4316 45.4105 28.5535 44.5887 28.8131C42.7347 29.3831 41.2559 30.7253 40.7239 33.2746L40.379 34.9271C39.6115 38.605 41.6849 40.7622 44.378 41.9656C45.4157 42.4345 46.5556 42.7671 47.6539 42.9963C48.7522 43.2255 49.9299 43.3766 51.0787 43.364C51.9953 43.3555 52.8624 43.2315 53.6921 42.9841C55.5482 42.404 57.027 41.0618 57.559 38.5125L57.9039 36.86C58.6693 33.1922 56.598 31.025 53.9049 29.8215ZM69.9315 40.7476C69.4731 42.9442 67.726 43.0527 66.0735 42.7079C65.2573 42.5375 64.4684 42.2362 63.9115 41.7309C63.3545 41.2256 63.0923 40.4664 63.3215 39.3681L63.5276 38.3806C63.9839 36.1941 65.7512 36.0897 67.3835 36.4304C68.2199 36.6049 69.0007 36.894 69.5577 37.3993C70.0904 37.9206 70.3668 38.6618 70.1376 39.7601L69.9315 40.7476ZM71.4981 33.4931C70.4502 33.022 69.3104 32.6895 68.2121 32.4603C67.1138 32.2311 65.9361 32.08 64.7974 32.0947C63.8808 32.1032 63.0036 32.2251 62.1818 32.4847C60.3279 33.0547 58.849 34.3969 58.317 36.9462L57.9721 38.5987C57.2046 42.2765 59.278 44.4337 61.9711 45.6372C63.0089 46.1061 64.1487 46.4386 65.247 46.6678C66.3454 46.8971 67.5231 47.0482 68.6718 47.0356C69.5884 47.0271 70.4555 46.9031 71.2853 46.6557C73.1413 46.0756 74.6202 44.7334 75.1522 42.1841L75.497 40.5316C76.2625 36.8638 74.1911 34.6965 71.4981 33.4931ZM24.4732 51.183C24.0502 51.0947 23.6576 50.9508 23.2954 50.7514C22.9343 50.5468 22.6602 50.3254 22.473 50.0872L22.9844 49.3783C23.1655 49.5937 23.4042 49.7916 23.7004 49.9718C23.9966 50.1521 24.3123 50.2772 24.6477 50.3472C24.9314 50.4064 25.1674 50.4234 25.3558 50.3981C25.5441 50.3728 25.6903 50.3171 25.7944 50.2312C25.8995 50.1401 25.9661 50.0274 25.9941 49.8933C26.0285 49.7282 25.9967 49.5843 25.8985 49.4615C25.8013 49.3335 25.6633 49.2213 25.4842 49.1247C25.3114 49.024 25.1143 48.9237 24.8929 48.8236C24.6767 48.7247 24.4595 48.6174 24.2413 48.5019C24.0294 48.3823 23.8393 48.2484 23.671 48.1002C23.509 47.948 23.388 47.7666 23.3081 47.5561C23.2282 47.3456 23.2184 47.0959 23.2787 46.807C23.3401 46.513 23.4735 46.2608 23.6788 46.0507C23.8905 45.8364 24.1713 45.6904 24.5213 45.6127C24.8775 45.531 25.3033 45.5417 25.7985 45.6451C26.1236 45.7129 26.4374 45.8215 26.74 45.9708C27.0427 46.1201 27.2965 46.2969 27.5015 46.5012L27.0211 47.2166C26.8088 47.0215 26.5806 46.8635 26.3367 46.7426C26.0938 46.6166 25.8537 46.5288 25.6164 46.4793C25.3378 46.4211 25.1038 46.4073 24.9144 46.4377C24.7301 46.4693 24.5854 46.5306 24.4803 46.6217C24.3803 46.7139 24.3158 46.8296 24.2867 46.9689C24.2522 47.134 24.281 47.28 24.373 47.4069C24.4712 47.5297 24.6072 47.6388 24.7811 47.7343C24.9601 47.8309 25.1598 47.9318 25.3801 48.037C25.6015 48.137 25.8187 48.2443 26.0317 48.3587C26.2499 48.4742 26.4405 48.6055 26.6036 48.7526C26.7719 48.9008 26.8934 49.0796 26.9681 49.289C27.048 49.4995 27.0584 49.7466 26.9992 50.0304C26.9389 50.3193 26.8029 50.5709 26.5913 50.7851C26.3859 50.9953 26.1051 51.1413 25.7489 51.2231C25.3937 51.2997 24.9685 51.2863 24.4732 51.183ZM29.5152 52.2109C29.056 52.1151 28.6724 51.9409 28.3645 51.6882C28.0627 51.4314 27.8498 51.1231 27.7257 50.7634C27.6067 50.4048 27.5897 50.0217 27.6748 49.6142C27.7609 49.2014 27.9271 48.8566 28.1734 48.5795C28.4258 48.2984 28.7308 48.101 29.0884 47.9872C29.4511 47.8744 29.8388 47.8611 30.2515 47.9473C30.6539 48.0312 30.9942 48.1938 31.2723 48.4349C31.5504 48.6759 31.7463 48.9753 31.8601 49.3328C31.974 49.6903 31.9856 50.0858 31.8952 50.5192C31.8866 50.5604 31.8743 50.6063 31.8584 50.6568C31.8476 50.7084 31.8348 50.7569 31.82 50.8023L28.3763 50.0836L28.5104 49.4413L31.4433 50.0534L31.0221 50.1754C31.0768 49.9392 31.0714 49.72 31.0059 49.5179C30.9404 49.3158 30.8281 49.1443 30.6691 49.0035C30.5152 48.8637 30.3222 48.7696 30.09 48.7211C29.8527 48.6716 29.633 48.6796 29.4309 48.7451C29.234 48.8117 29.0645 48.927 28.9226 49.0912C28.7869 49.2513 28.6932 49.4552 28.6415 49.7028L28.6092 49.8576C28.5575 50.1053 28.5685 50.3364 28.6422 50.5509C28.7158 50.7655 28.8451 50.9459 29.0299 51.0922C29.2147 51.2384 29.4413 51.3395 29.7096 51.3955C29.9417 51.444 30.1582 51.4514 30.359 51.418C30.5598 51.3845 30.7486 51.3055 30.9253 51.1808L31.3195 51.8849C31.0885 52.0628 30.8188 52.1815 30.5103 52.241C30.208 52.2963 29.8763 52.2863 29.5152 52.2109ZM32.398 52.7561L33.5963 47.014L34.5637 47.2159L33.3653 52.9579L32.398 52.7561ZM34.6349 53.2229L35.8333 47.4809L36.8006 47.6827L35.6023 53.4248L34.6349 53.2229ZM38.803 54.1493C38.3438 54.0534 37.9602 53.8792 37.6523 53.6265C37.3505 53.3697 37.1376 53.0614 37.0135 52.7017C36.8945 52.3431 36.8775 51.96 36.9626 51.5525C37.0487 51.1397 37.2149 50.7949 37.4611 50.5179C37.7136 50.2367 38.0186 50.0393 38.3762 49.9255C38.7389 49.8127 39.1266 49.7994 39.5393 49.8856C39.9417 49.9696 40.282 50.1321 40.5601 50.3732C40.8382 50.6143 41.0341 50.9136 41.1479 51.2711C41.2618 51.6287 41.2734 52.0241 41.183 52.4575C41.1744 52.4987 41.1621 52.5446 41.1462 52.5951C41.1354 52.6467 41.1226 52.6952 41.1078 52.7406L37.6641 52.0219L37.7981 51.3796L40.7311 51.9917L40.3099 52.1137C40.3646 51.8775 40.3592 51.6583 40.2937 51.4562C40.2282 51.2541 40.1159 51.0826 39.9569 50.9418C39.803 50.802 39.61 50.7079 39.3778 50.6594C39.1405 50.6099 38.9208 50.6179 38.7187 50.6834C38.5218 50.75 38.3523 50.8653 38.2104 51.0295C38.0747 51.1896 37.981 51.3935 37.9293 51.6412L37.897 51.7959C37.8453 52.0436 37.8563 52.2747 37.93 52.4892C38.0036 52.7038 38.1329 52.8842 38.3177 53.0305C38.5025 53.1767 38.7291 53.2778 38.9974 53.3338C39.2295 53.3823 39.446 53.3898 39.6468 53.3563C39.8476 53.3228 40.0364 53.2438 40.2131 53.1191L40.6073 53.8232C40.3763 54.0011 40.1066 54.1198 39.7981 54.1793C39.4958 54.2346 39.1641 54.2246 38.803 54.1493ZM41.6858 54.6944L42.5482 50.562L43.4691 50.7541L43.2317 51.8917L43.1928 51.5363C43.3748 51.2836 43.6124 51.1125 43.9056 51.0229C44.204 50.9344 44.5519 50.9317 44.9491 51.0146L44.7569 51.9355C44.7178 51.9165 44.6802 51.9033 44.6441 51.8958C44.6091 51.8831 44.5735 51.8729 44.5374 51.8654C44.1711 51.789 43.857 51.8365 43.5951 52.0079C43.3343 52.1742 43.1597 52.4689 43.0714 52.8919L42.6531 54.8962L41.6858 54.6944ZM46.201 55.6932C45.8553 55.621 45.5317 55.5077 45.2301 55.3533C44.9348 55.1947 44.7078 55.0316 44.5489 54.8639L45.0738 54.2062C45.2348 54.3636 45.4362 54.508 45.678 54.6392C45.9198 54.7704 46.1697 54.8629 46.4276 54.9168C46.732 54.9803 46.9599 54.9848 47.1112 54.9302C47.2677 54.8767 47.3605 54.7804 47.3896 54.6411C47.4133 54.5276 47.3846 54.4327 47.3036 54.3566C47.2237 54.2753 47.1121 54.2036 46.969 54.1414C46.8258 54.0792 46.6641 54.0159 46.4837 53.9513C46.3085 53.8878 46.1324 53.8161 45.9553 53.7361C45.7844 53.6519 45.6328 53.553 45.5004 53.4392C45.3691 53.3203 45.2721 53.1789 45.2093 53.0151C45.1466 52.8513 45.14 52.6507 45.1896 52.4134C45.2445 52.1503 45.3667 51.9389 45.5561 51.7792C45.7466 51.6144 45.9868 51.5084 46.2766 51.4612C46.5726 51.4099 46.9064 51.423 47.2778 51.5006C47.5564 51.5587 47.8311 51.6483 48.102 51.7694C48.3728 51.8906 48.5892 52.0273 48.7513 52.1795L48.2264 52.8372C48.0551 52.6776 47.8732 52.5562 47.6806 52.4729C47.4942 52.3856 47.303 52.3214 47.107 52.2805C46.8129 52.2192 46.5845 52.2173 46.4217 52.2748C46.2641 52.3334 46.1714 52.4298 46.1434 52.564C46.1175 52.6878 46.1446 52.7903 46.2245 52.8716C46.3045 52.9529 46.4155 53.0272 46.5575 53.0946C46.6996 53.1619 46.8582 53.2273 47.0334 53.2908C47.2148 53.3502 47.391 53.4219 47.5619 53.5061C47.7327 53.5902 47.8844 53.6891 48.0168 53.8029C48.1554 53.9126 48.2561 54.0493 48.3188 54.2132C48.3815 54.377 48.3886 54.575 48.3402 54.8071C48.2863 55.0651 48.1621 55.2734 47.9675 55.4319C47.7781 55.5916 47.5327 55.6965 47.2315 55.7467C46.9314 55.7918 46.5879 55.7739 46.201 55.6932ZM52.6049 58.5963C52.2231 58.5166 51.8598 58.387 51.5151 58.2073C51.1744 58.034 50.9079 57.8276 50.7156 57.5883L51.3007 56.9513C51.4501 57.1386 51.6523 57.3046 51.9074 57.4494C52.1667 57.6004 52.4381 57.7055 52.7219 57.7647C53.1759 57.8594 53.5307 57.8231 53.7864 57.6558C54.041 57.4935 54.2119 57.2035 54.2991 56.7856L54.4525 56.0504L54.7253 55.1302L54.8897 54.1874L55.0997 53.1814L56.0206 53.3736L55.289 56.8791C55.1329 57.6272 54.8273 58.1368 54.3723 58.4079C53.9163 58.6842 53.3271 58.747 52.6049 58.5963ZM52.8444 56.8293C52.4523 56.7475 52.1136 56.5906 51.8282 56.3588C51.549 56.1228 51.3478 55.8359 51.2245 55.4979C51.1064 55.161 51.0893 54.7913 51.1733 54.3889C51.2562 53.9917 51.4191 53.6623 51.6622 53.4008C51.9103 53.1403 52.209 52.9604 52.5581 52.8609C52.9125 52.7626 53.2857 52.7543 53.6778 52.8362C54.0286 52.9094 54.3287 53.0447 54.5783 53.2421C54.8278 53.4396 55.0044 53.7026 55.1081 54.0311C55.217 54.3607 55.2235 54.755 55.1277 55.2142C55.0319 55.6734 54.8676 56.0348 54.6349 56.2985C54.4085 56.5581 54.1409 56.7311 53.8321 56.8174C53.5245 56.8985 53.1952 56.9025 52.8444 56.8293ZM53.1626 56.0397C53.4051 56.0903 53.632 56.0865 53.8434 56.0283C54.0558 55.965 54.2319 55.8563 54.3717 55.7025C54.5177 55.5445 54.6149 55.3495 54.6634 55.1173C54.7118 54.8851 54.7002 54.6701 54.6285 54.472C54.563 54.2699 54.4445 54.1025 54.2729 53.9698C54.1025 53.832 53.8961 53.7378 53.6536 53.6871C53.4111 53.6365 53.1816 53.6398 52.9651 53.6969C52.7549 53.7499 52.5767 53.8554 52.4307 54.0134C52.2909 54.1673 52.1968 54.3603 52.1483 54.5924C52.0999 54.8246 52.1084 55.0417 52.1739 55.2438C52.2456 55.4418 52.3662 55.6123 52.5355 55.7554C52.7111 55.8943 52.9202 55.9891 53.1626 56.0397ZM58.361 58.2309C57.9018 58.1351 57.5183 57.9608 57.2103 57.7081C56.9086 57.4513 56.6956 57.1431 56.5715 56.7834C56.4525 56.4248 56.4356 56.0417 56.5206 55.6341C56.6067 55.2214 56.7729 54.8765 57.0192 54.5995C57.2717 54.3184 57.5767 54.1209 57.9342 54.0071C58.2969 53.8944 58.6846 53.8811 59.0973 53.9672C59.4998 54.0512 59.84 54.2137 60.1181 54.4548C60.3962 54.6959 60.5922 54.9952 60.706 55.3527C60.8198 55.7103 60.8315 56.1057 60.741 56.5391C60.7324 56.5804 60.7201 56.6263 60.7042 56.6768C60.6934 56.7284 60.6806 56.7768 60.6658 56.8222L57.2221 56.1035L57.3562 55.4612L60.2891 56.0733L59.8679 56.1954C59.9226 55.9591 59.9172 55.74 59.8517 55.5379C59.7862 55.3358 59.6739 55.1643 59.5149 55.0234C59.361 54.8836 59.168 54.7895 58.9358 54.7411C58.6985 54.6915 58.4788 54.6995 58.2767 54.765C58.0798 54.8316 57.9103 54.947 57.7684 55.1112C57.6327 55.2713 57.539 55.4752 57.4873 55.7228L57.455 55.8776C57.4033 56.1252 57.4143 56.3563 57.488 56.5709C57.5617 56.7854 57.6909 56.9659 57.8757 57.1121C58.0606 57.2583 58.2871 57.3595 58.5554 57.4155C58.7875 57.4639 59.004 57.4714 59.2048 57.4379C59.4056 57.4045 59.5944 57.3254 59.7711 57.2008L60.1653 57.9049C59.9343 58.0828 59.6646 58.2015 59.3561 58.2609C59.0538 58.3163 58.7221 58.3063 58.361 58.2309ZM62.788 59.1548C62.334 59.06 62.0074 58.8707 61.8082 58.5869C61.6101 58.2979 61.559 57.9238 61.6548 57.4647L62.4284 53.7579L63.3957 53.9598L62.627 57.6433C62.586 57.8394 62.6033 58.0018 62.6787 58.1306C62.7593 58.2605 62.8898 58.3443 63.0704 58.3819C63.2871 58.4272 63.4795 58.4081 63.6476 58.3247L63.7748 59.07C63.6419 59.1392 63.488 59.1797 63.3133 59.1917C63.1385 59.2037 62.9634 59.1914 62.788 59.1548ZM61.3888 55.3337L61.5503 54.5599L64.3053 55.1348L64.1438 55.9087L61.3888 55.3337ZM69.2083 60.4381L69.3828 59.6024L69.3657 59.4131L69.671 57.9505C69.7302 57.6667 69.6908 57.4297 69.5529 57.2394C69.416 57.044 69.1747 56.9102 68.8291 56.838C68.5969 56.7896 68.3598 56.7778 68.1177 56.8026C67.8808 56.8286 67.6715 56.8899 67.4898 56.9865L67.2576 56.2032C67.515 56.0792 67.8045 56.0078 68.1261 55.9887C68.4539 55.9656 68.7829 55.9885 69.1131 56.0574C69.7116 56.1823 70.1432 56.4231 70.4079 56.7799C70.6788 57.1325 70.7519 57.6081 70.627 58.2065L70.1215 60.6287L69.2083 60.4381ZM67.897 60.221C67.5874 60.1564 67.3273 60.0483 67.1167 59.8966C66.9072 59.7399 66.7573 59.5551 66.6671 59.3425C66.5831 59.1258 66.5659 58.8988 66.6154 58.6614C66.6638 58.4293 66.7616 58.2316 66.9087 58.0685C67.061 57.9065 67.2748 57.7977 67.5502 57.7421C67.8256 57.6865 68.1722 57.7023 68.5901 57.7895L69.7896 58.0399L69.6556 58.6822L68.5257 58.4464C68.1955 58.3775 67.9624 58.3853 67.8263 58.47C67.6913 58.5495 67.6076 58.6666 67.5753 58.8214C67.5387 58.9968 67.5793 59.1506 67.697 59.2829C67.8148 59.4151 67.9975 59.5071 68.2451 59.5588C68.4824 59.6083 68.7053 59.5983 68.9136 59.5287C69.1271 59.4602 69.2972 59.3288 69.4239 59.1345L69.4653 59.7488C69.3218 59.9719 69.1148 60.1252 68.8444 60.2087C68.579 60.2934 68.2632 60.2974 67.897 60.221ZM6.63899 60.7169C6.20563 60.6265 5.83755 60.4554 5.53473 60.2038C5.23815 59.9481 5.0278 59.6404 4.90367 59.2807C4.77954 58.921 4.76 58.5374 4.84505 58.1298C4.93119 57.7171 5.10253 57.3733 5.3591 57.0984C5.61673 56.8184 5.93206 56.6231 6.30508 56.5125C6.68326 56.403 7.08903 56.3935 7.52239 56.4839C7.9248 56.5679 8.26097 56.7242 8.5309 56.9528C8.80706 57.1773 8.99227 57.4636 9.08653 57.8117L8.25319 58.09C8.17028 57.8682 8.04824 57.6919 7.88705 57.5614C7.73102 57.4319 7.54983 57.3457 7.34347 57.3026C7.10615 57.2531 6.88128 57.26 6.66887 57.3233C6.45645 57.3867 6.27561 57.505 6.12636 57.6785C5.97818 57.8468 5.8761 58.065 5.82011 58.3333C5.76413 58.6016 5.76985 58.845 5.83727 59.0637C5.90578 59.2772 6.02471 59.4554 6.19406 59.5985C6.36341 59.7415 6.56674 59.8377 6.80406 59.8873C7.01042 59.9303 7.211 59.9237 7.40578 59.8675C7.60573 59.8123 7.78807 59.6996 7.9528 59.5294L8.60526 60.1178C8.38073 60.394 8.09593 60.5849 7.75086 60.6905C7.41202 60.7921 7.0414 60.8009 6.63899 60.7169ZM11.0364 61.6346C10.6133 61.5463 10.2556 61.3775 9.96307 61.128C9.67165 60.8733 9.46387 60.5662 9.33974 60.2065C9.21561 59.8468 9.19607 59.4632 9.28113 59.0556C9.36726 58.6429 9.53861 58.2991 9.79517 58.0242C10.0528 57.7442 10.3656 57.5483 10.7334 57.4367C11.1013 57.325 11.4967 57.3133 11.9198 57.4016C12.348 57.491 12.7083 57.6604 13.0008 57.9099C13.2985 58.1604 13.5073 58.4624 13.6274 58.8159C13.7526 59.1704 13.7716 59.5566 13.6844 59.9745C13.5993 60.3821 13.428 60.7259 13.1703 61.0059C12.9179 61.287 12.6046 61.4854 12.2305 61.6012C11.8626 61.7128 11.4646 61.724 11.0364 61.6346ZM11.2092 60.8066C11.4465 60.8561 11.6688 60.8487 11.876 60.7842C12.0833 60.7198 12.259 60.6004 12.4031 60.4259C12.5523 60.2524 12.6544 60.0341 12.7093 59.771C12.7653 59.5028 12.759 59.2619 12.6905 59.0484C12.6283 58.8308 12.515 58.6511 12.3508 58.5091C12.1867 58.3672 11.9885 58.272 11.7563 58.2235C11.519 58.174 11.2967 58.1814 11.0895 58.2459C10.8874 58.3114 10.7117 58.4308 10.5624 58.6043C10.4143 58.7725 10.3122 58.9908 10.2562 59.2591C10.2013 59.5222 10.2075 59.7631 10.275 59.9817C10.3424 60.2004 10.4556 60.3801 10.6147 60.521C10.7788 60.6629 10.977 60.7581 11.2092 60.8066ZM20.2661 59.1434C20.5962 59.2123 20.8743 59.3377 21.1001 59.5194C21.3312 59.7022 21.4909 59.9428 21.5794 60.2412C21.6689 60.5345 21.6701 60.8901 21.5829 61.3079L21.0887 63.676L20.1214 63.4741L20.5897 61.2299C20.6662 60.8636 20.6433 60.5735 20.521 60.3595C20.3988 60.1456 20.1881 60.0074 19.8888 59.945C19.6773 59.9008 19.4793 59.9079 19.2948 59.9664C19.1155 60.0258 18.9606 60.1362 18.8301 60.2974C18.7047 60.4596 18.6129 60.6801 18.5548 60.9586L18.1171 63.0558L17.1498 62.8539L17.6181 60.6097C17.6946 60.2434 17.6717 59.9533 17.5494 59.7394C17.4272 59.5254 17.2164 59.3872 16.9172 59.3248C16.7057 59.2807 16.5077 59.2878 16.3232 59.3462C16.1439 59.4057 15.989 59.516 15.8584 59.6772C15.7331 59.8395 15.6413 60.0599 15.5832 60.3385L15.1455 62.4356L14.1782 62.2338L15.0406 58.1014L15.9615 58.2936L15.7321 59.3924L15.6375 59.0335C15.8327 58.7943 16.0765 58.6325 16.3687 58.5481C16.666 58.4648 16.9849 58.4587 17.3254 58.5297C17.7123 58.6105 18.0278 58.7759 18.2717 59.026C18.5207 59.2772 18.6513 59.6059 18.6634 60.0122L18.3117 59.8016C18.5104 59.52 18.784 59.3187 19.1323 59.1975C19.4806 59.0764 19.8585 59.0584 20.2661 59.1434ZM24.6041 64.4661C24.2688 64.3961 23.978 64.2547 23.7317 64.0418C23.4906 63.83 23.3198 63.552 23.2193 63.208C23.125 62.86 23.128 62.446 23.2281 61.9662C23.3293 61.4813 23.4896 61.1002 23.709 60.8229C23.9335 60.5468 24.1981 60.3624 24.5027 60.2699C24.8085 60.1722 25.1367 60.1599 25.4875 60.2331C25.8951 60.3182 26.2354 60.4807 26.5083 60.7207C26.7864 60.9618 26.9829 61.2585 27.0978 61.6109C27.2178 61.9644 27.2332 62.3552 27.1438 62.7834C27.0544 63.2116 26.8835 63.5663 26.631 63.8474C26.3848 64.1244 26.086 64.3178 25.7347 64.4275C25.3886 64.5383 25.0117 64.5512 24.6041 64.4661ZM22.0115 65.4352L23.1872 59.8015L24.1081 59.9937L23.9046 60.9688L23.6444 62.0612L23.4924 63.1762L22.9788 65.6371L22.0115 65.4352ZM24.6686 63.6155C24.9008 63.6639 25.1179 63.6554 25.32 63.5899C25.5273 63.5255 25.7055 63.4066 25.8548 63.2331C26.004 63.0597 26.1061 62.8414 26.161 62.5783C26.217 62.31 26.2107 62.0692 26.1422 61.8557C26.0748 61.637 25.959 61.4567 25.7948 61.3148C25.6358 61.1739 25.4402 61.0793 25.208 61.0308C24.9759 60.9824 24.7561 60.9903 24.5489 61.0548C24.3416 61.1192 24.1634 61.2381 24.0141 61.4115C23.8659 61.5798 23.7639 61.7981 23.7079 62.0664C23.653 62.3295 23.6592 62.5704 23.7267 62.789C23.7941 63.0077 23.9099 63.188 24.0741 63.3299C24.2383 63.4718 24.4364 63.567 24.6686 63.6155ZM27.63 65.0411L28.8283 59.2991L29.7956 59.5009L28.5973 65.2429L27.63 65.0411ZM29.8669 65.5079L30.7293 61.3755L31.6966 61.5774L30.8342 65.7098L29.8669 65.5079ZM31.359 60.7963C31.1784 60.7586 31.0406 60.6706 30.9457 60.5323C30.8558 60.3952 30.8276 60.2466 30.861 60.0867C30.8955 59.9216 30.9807 59.7967 31.1168 59.7121C31.2592 59.6233 31.4206 59.5978 31.6012 59.6355C31.7818 59.6732 31.9175 59.758 32.0084 59.89C32.1055 60.018 32.1374 60.1619 32.104 60.3219C32.0685 60.4921 31.9816 60.6247 31.8433 60.7197C31.7061 60.8095 31.5447 60.835 31.359 60.7963ZM38.1917 62.8844C38.5219 62.9533 38.7999 63.0786 39.0258 63.2604C39.2569 63.4432 39.4166 63.6838 39.5051 63.9822C39.5946 64.2755 39.5958 64.631 39.5086 65.0489L39.0144 67.4169L38.0471 67.2151L38.5154 64.9709C38.5919 64.6046 38.569 64.3145 38.4467 64.1005C38.3245 63.8866 38.1137 63.7484 37.8145 63.6859C37.603 63.6418 37.405 63.6489 37.2205 63.7073C37.0412 63.7668 36.8863 63.8772 36.7557 64.0383C36.6303 64.2006 36.5386 64.421 36.4804 64.6996L36.0428 66.7968L35.0755 66.5949L35.5438 64.3507C35.6202 63.9844 35.5973 63.6943 35.4751 63.4804C35.3528 63.2664 35.1421 63.1282 34.8429 63.0658C34.6314 63.0216 34.4334 63.0288 34.2489 63.0872C34.0696 63.1467 33.9147 63.257 33.7841 63.4182C33.6587 63.5804 33.567 63.8009 33.5088 64.0795L33.0712 66.1766L32.1038 65.9747L32.9662 61.8423L33.8871 62.0345L33.6578 63.1334L33.5631 62.7745C33.7584 62.5353 34.0021 62.3735 34.2943 62.2891C34.5917 62.2058 34.9106 62.1997 35.2511 62.2707C35.638 62.3515 35.9534 62.5169 36.1973 62.767C36.4464 63.0182 36.577 63.3469 36.5891 63.7532L36.2374 63.5425C36.4361 63.261 36.7096 63.0596 37.0579 62.9385C37.4062 62.8174 37.7842 62.7994 38.1917 62.8844ZM42.1891 68.136C41.73 68.0402 41.3464 67.8659 41.0384 67.6132C40.7367 67.3564 40.5238 67.0482 40.3996 66.6885C40.2807 66.3299 40.2637 65.9468 40.3488 65.5392C40.4349 65.1265 40.6011 64.7816 40.8473 64.5046C41.0998 64.2235 41.4048 64.026 41.7624 63.9122C42.1251 63.7995 42.5128 63.7862 42.9255 63.8723C43.3279 63.9563 43.6682 64.1188 43.9463 64.3599C44.2243 64.601 44.4203 64.9003 44.5341 65.2579C44.6479 65.6154 44.6596 66.0109 44.5692 66.4442C44.5606 66.4855 44.5483 66.5314 44.5324 66.5819C44.5216 66.6335 44.5088 66.682 44.4939 66.7273L41.0503 66.0086L41.1843 65.3663L44.1172 65.9784L43.6961 66.1005C43.7507 65.8643 43.7453 65.6451 43.6798 65.443C43.6143 65.2409 43.5021 65.0694 43.343 64.9285C43.1892 64.7887 42.9962 64.6946 42.764 64.6462C42.5267 64.5967 42.307 64.6046 42.1049 64.6701C41.9079 64.7367 41.7385 64.8521 41.5966 65.0163C41.4608 65.1764 41.3672 65.3803 41.3155 65.6279L41.2832 65.7827C41.2315 66.0303 41.2425 66.2614 41.3162 66.476C41.3898 66.6906 41.5191 66.871 41.7039 67.0172C41.8887 67.1635 42.1153 67.2646 42.3835 67.3206C42.6157 67.369 42.8322 67.3765 43.033 67.343C43.2338 67.3096 43.4225 67.2305 43.5993 67.1059L43.9934 67.81C43.7625 67.9879 43.4928 68.1066 43.1842 68.166C42.882 68.2214 42.5503 68.2114 42.1891 68.136ZM48.2889 64.9916C48.6191 65.0605 48.8997 65.1864 49.1307 65.3692C49.3669 65.5531 49.5318 65.7948 49.6254 66.0943C49.7201 66.3886 49.7239 66.7447 49.6367 67.1626L49.1425 69.5306L48.1752 69.3287L48.6435 67.0845C48.7199 66.7182 48.6893 66.4265 48.5516 66.2093C48.419 65.9932 48.198 65.8529 47.8884 65.7883C47.6614 65.7409 47.4505 65.7454 47.2557 65.8016C47.061 65.8579 46.8952 65.9686 46.7584 66.1339C46.6278 66.2951 46.5335 66.515 46.4754 66.7936L46.0393 68.883L45.072 68.6811L45.9344 64.5487L46.8553 64.7409L46.6227 65.8553L46.5313 65.4808C46.7306 65.2479 46.9816 65.0903 47.2841 65.008C47.5928 64.9217 47.9277 64.9163 48.2889 64.9916ZM51.9137 70.1655C51.4597 70.0707 51.1331 69.8814 50.934 69.5976C50.7359 69.3086 50.6847 68.9345 50.7805 68.4754L51.5541 64.7686L52.5214 64.9705L51.7527 68.654C51.7118 68.8501 51.729 69.0125 51.8044 69.1413C51.885 69.2712 52.0156 69.3549 52.1962 69.3926C52.4128 69.4378 52.6052 69.4188 52.7734 69.3354L52.9005 70.0807C52.7676 70.1499 52.6138 70.1904 52.439 70.2024C52.2642 70.2144 52.0891 70.2021 51.9137 70.1655ZM50.5146 66.3444L50.6761 65.5706L53.431 66.1455L53.2695 66.9194L50.5146 66.3444ZM56.1954 71.0025L56.3698 70.1667L56.3528 69.9774L56.658 68.5149C56.7172 68.2311 56.6779 67.9941 56.5399 67.8038C56.4031 67.6083 56.1618 67.4745 55.8161 67.4024C55.584 67.3539 55.3469 67.3421 55.1048 67.367C54.8679 67.3929 54.6586 67.4542 54.4769 67.5509L54.2447 66.7676C54.502 66.6436 54.7915 66.5721 55.1131 66.5531C55.441 66.53 55.77 66.5529 56.1002 66.6218C56.6986 66.7467 57.1302 66.9875 57.3949 67.3442C57.6659 67.6969 57.7389 68.1724 57.614 68.7709L57.1086 71.1931L56.1954 71.0025ZM54.884 70.7854C54.5745 70.7208 54.3144 70.6126 54.1038 70.461C53.8942 70.3042 53.7443 70.1195 53.6541 69.9069C53.5701 69.6901 53.5529 69.4631 53.6024 69.2258C53.6509 68.9936 53.7487 68.796 53.8958 68.6329C54.048 68.4708 54.2619 68.362 54.5373 68.3065C54.8127 68.2509 55.1593 68.2667 55.5772 68.3539L56.7767 68.6042L56.6426 69.2465L55.5128 69.0107C55.1826 68.9418 54.9495 68.9497 54.8134 69.0343C54.6783 69.1138 54.5947 69.231 54.5624 69.3857C54.5258 69.5612 54.5663 69.715 54.6841 69.8472C54.8018 69.9795 54.9845 70.0715 55.2322 70.1231C55.4695 70.1727 55.6923 70.1626 55.9007 70.093C56.1142 70.0245 56.2842 69.8931 56.4109 69.6989L56.4523 70.3132C56.3089 70.5363 56.1019 70.6896 55.8314 70.7731C55.5661 70.8577 55.2503 70.8618 54.884 70.7854ZM58.35 71.4521L59.2124 67.3198L60.1333 67.5119L59.8959 68.6495L59.857 68.2941C60.0389 68.0414 60.2765 67.8702 60.5698 67.7807C60.8682 67.6922 61.2161 67.6895 61.6133 67.7724L61.4211 68.6932C61.382 68.6743 61.3444 68.6611 61.3083 68.6535C61.2732 68.6408 61.2377 68.6307 61.2015 68.6232C60.8353 68.5467 60.5212 68.5943 60.2593 68.7657C59.9984 68.932 59.8239 69.2267 59.7356 69.6497L59.3173 71.654L58.35 71.4521ZM61.7288 73.7805C61.5276 73.7385 61.3334 73.663 61.1462 73.5539C60.959 73.4449 60.8107 73.317 60.7013 73.1704L61.2368 72.5392C61.3166 72.6473 61.413 72.7401 61.526 72.8175C61.6391 72.895 61.7601 72.9471 61.889 72.9741C62.0644 73.0107 62.2155 72.9964 62.3421 72.9313C62.4688 72.8662 62.6 72.7402 62.736 72.5532L63.0889 72.0616L63.1905 71.9617L65.516 68.6353L66.4446 68.8291L63.5781 72.8905C63.3846 73.1731 63.189 73.388 62.9914 73.5352C62.7989 73.6835 62.5971 73.7733 62.386 73.8046C62.18 73.837 61.961 73.8289 61.7288 73.7805ZM62.874 72.5497L61.9021 67.8811L62.9081 68.091L63.6803 71.975L62.874 72.5497ZM68.4183 73.5534L69.5488 68.1364L71.7776 68.6015C72.2573 68.7016 72.6513 68.8646 72.9595 69.0904C73.2729 69.3173 73.4923 69.5946 73.6177 69.9223C73.7431 70.2499 73.7644 70.6124 73.6815 71.0096C73.5986 71.4069 73.4341 71.7306 73.1881 71.9807C72.9421 72.2309 72.6301 72.3973 72.2522 72.4799C71.8794 72.5636 71.4531 72.5554 70.9733 72.4553L69.3018 72.1064L69.8491 71.7281L69.4244 73.7633L68.4183 73.5534ZM69.8265 71.8364L69.4794 71.2552L71.1045 71.5943C71.5482 71.6869 71.9003 71.6635 72.1609 71.5241C72.4278 71.3806 72.5967 71.1386 72.6678 70.7981C72.7399 70.4524 72.6818 70.163 72.4936 69.9299C72.3105 69.6979 71.9971 69.5356 71.5535 69.443L69.9284 69.1039L70.4806 68.7023L69.8265 71.8364ZM76.3731 75.2135L76.5475 74.3777L76.5305 74.1884L76.8357 72.7258C76.895 72.4421 76.8556 72.205 76.7176 72.0147C76.5808 71.8193 76.3395 71.6855 75.9939 71.6133C75.7617 71.5649 75.5246 71.5531 75.2825 71.578C75.0456 71.6039 74.8363 71.6652 74.6546 71.7619L74.4224 70.9785C74.6798 70.8546 74.9692 70.7831 75.2909 70.7641C75.6187 70.741 75.9477 70.7639 76.2779 70.8328C76.8763 70.9577 77.3079 71.1985 77.5727 71.5552C77.8436 71.9079 77.9167 72.3834 77.7918 72.9819L77.2863 75.404L76.3731 75.2135ZM75.0617 74.9963C74.7522 74.9317 74.4921 74.8236 74.2815 74.672C74.0719 74.5152 73.9221 74.3305 73.8318 74.1178C73.7479 73.9011 73.7306 73.6741 73.7802 73.4368C73.8286 73.2046 73.9264 73.007 74.0735 72.8439C74.2257 72.6818 74.4396 72.573 74.715 72.5174C74.9904 72.4618 75.337 72.4776 75.7549 72.5649L76.9544 72.8152L76.8203 73.4575L75.6905 73.2217C75.3603 73.1528 75.1272 73.1607 74.9911 73.2453C74.856 73.3248 74.7724 73.4419 74.7401 73.5967C74.7035 73.7721 74.744 73.9259 74.8618 74.0582C74.9796 74.1905 75.1623 74.2824 75.4099 74.3341C75.6472 74.3836 75.87 74.3736 76.0784 74.304C76.2919 74.2355 76.462 74.1041 76.5886 73.9098L76.63 74.5241C76.4866 74.7472 76.2796 74.9005 76.0091 74.9841C75.7438 75.0687 75.428 75.0728 75.0617 74.9963ZM78.5277 75.6631L79.3901 71.5307L80.3574 71.7326L79.495 75.865L78.5277 75.6631ZM80.0198 70.9515C79.8392 70.9138 79.7014 70.8258 79.6064 70.6875C79.5166 70.5504 79.4884 70.4018 79.5218 70.2419C79.5562 70.0768 79.6415 69.9519 79.7776 69.8673C79.92 69.7785 80.0814 69.753 80.262 69.7907C80.4426 69.8284 80.5783 69.9132 80.6692 70.0452C80.7663 70.1732 80.7982 70.3171 80.7648 70.4771C80.7293 70.6473 80.6424 70.7799 80.5041 70.8749C80.3669 70.9647 80.2055 70.9902 80.0198 70.9515ZM80.7646 76.1299L81.627 71.9975L82.5479 72.1897L82.3105 73.3273L82.2716 72.9719C82.4536 72.7192 82.6912 72.548 82.9844 72.4585C83.2829 72.37 83.6307 72.3672 84.0279 72.4502L83.8358 73.371C83.7966 73.3521 83.759 73.3389 83.7229 73.3313C83.6879 73.3186 83.6523 73.3085 83.6162 73.301C83.2499 73.2245 82.9358 73.2721 82.6739 73.4435C82.4131 73.6098 82.2385 73.9045 82.1502 74.3275L81.7319 76.3318L80.7646 76.1299ZM20.4003 76.8689C19.9772 76.7806 19.6195 76.6117 19.327 76.3622C19.0356 76.1076 18.8278 75.8005 18.7037 75.4408C18.5795 75.0811 18.56 74.6974 18.645 74.2899C18.7312 73.8771 18.9025 73.5333 19.1591 73.2585C19.4167 72.9785 19.7295 72.7826 20.0973 72.671C20.4652 72.5593 20.8606 72.5476 21.2837 72.6359C21.7119 72.7253 22.0722 72.8947 22.3647 73.1441C22.6624 73.3947 22.8712 73.6967 22.9913 74.0502C23.1165 74.4047 23.1355 74.7909 23.0483 75.2088C22.9632 75.6164 22.7919 75.9602 22.5343 76.2402C22.2818 76.5213 21.9685 76.7197 21.5944 76.8354C21.2265 76.9471 20.8285 76.9583 20.4003 76.8689ZM20.5731 76.0409C20.8104 76.0904 21.0327 76.0829 21.24 76.0185C21.4472 75.9541 21.6229 75.8346 21.767 75.6601C21.9162 75.4867 22.0183 75.2684 22.0732 75.0053C22.1292 74.737 22.123 74.4962 22.0545 74.2827C21.9922 74.0651 21.879 73.8853 21.7148 73.7434C21.5506 73.6014 21.3524 73.5062 21.1202 73.4578C20.8829 73.4083 20.6606 73.4157 20.4534 73.4801C20.2513 73.5456 20.0756 73.6651 19.9263 73.8385C19.7782 74.0068 19.6761 74.2251 19.6201 74.4934C19.5652 74.7565 19.5715 74.9973 19.6389 75.216C19.7063 75.4347 19.8195 75.6144 19.9786 75.7553C20.1428 75.8972 20.3409 75.9924 20.5731 76.0409ZM23.6736 77.4955L24.5845 73.1309C24.6749 72.6976 24.8735 72.3783 25.1801 72.1731C25.493 71.9638 25.8867 71.9087 26.3613 72.0078C26.5316 72.0433 26.6878 72.0947 26.8298 72.1621C26.9771 72.2305 27.0942 72.3141 27.1812 72.4131L26.7663 73.0856C26.7059 73.0138 26.632 72.9553 26.5445 72.9101C26.4581 72.8597 26.3659 72.8244 26.2679 72.8039C26.0667 72.7619 25.9026 72.7869 25.7758 72.8789C25.65 72.9657 25.5639 73.12 25.5176 73.3418L25.4207 73.8061L25.3613 74.246L24.641 77.6974L23.6736 77.4955ZM23.6871 74.0258L23.8486 73.2519L26.6035 73.8269L26.442 74.6007L23.6871 74.0258ZM30.2934 78.9577C29.8703 78.8695 29.4777 78.7256 29.1156 78.5262C28.7545 78.3216 28.4804 78.1002 28.2932 77.862L28.8045 77.153C28.9857 77.3685 29.2244 77.5664 29.5205 77.7466C29.8167 77.9269 30.1325 78.052 30.4678 78.122C30.7515 78.1812 30.9876 78.1981 31.1759 78.1728C31.3642 78.1475 31.5104 78.0919 31.6145 78.006C31.7197 77.9148 31.7862 77.8022 31.8142 77.6681C31.8487 77.503 31.8168 77.3591 31.7186 77.2363C31.6215 77.1083 31.4834 76.9961 31.3044 76.8995C31.1316 76.7988 30.9345 76.6985 30.7131 76.5984C30.4968 76.4995 30.2796 76.3922 30.0615 76.2767C29.8496 76.1571 29.6595 76.0232 29.4912 75.875C29.3291 75.7228 29.2082 75.5414 29.1283 75.3309C29.0484 75.1204 29.0386 74.8707 29.0989 74.5818C29.1602 74.2878 29.2936 74.0356 29.499 73.8255C29.7106 73.6112 29.9914 73.4652 30.3414 73.3875C30.6977 73.3057 31.1234 73.3165 31.6187 73.4199C31.9437 73.4877 32.2575 73.5963 32.5602 73.7456C32.8628 73.8949 33.1166 74.0717 33.3216 74.276L32.8412 74.9914C32.6289 74.7963 32.4008 74.6383 32.1568 74.5174C31.9139 74.3914 31.6738 74.3036 31.4365 74.254C31.1579 74.1959 30.9239 74.1821 30.7345 74.2125C30.5503 74.2441 30.4056 74.3054 30.3004 74.3965C30.2004 74.4887 30.1359 74.6044 30.1068 74.7437C30.0724 74.9088 30.1011 75.0548 30.1931 75.1817C30.2913 75.3044 30.4274 75.4136 30.6012 75.5091C30.7803 75.6057 30.98 75.7066 31.2003 75.8118C31.4217 75.9118 31.6389 76.0191 31.8519 76.1335C32.07 76.249 32.2607 76.3803 32.4238 76.5274C32.592 76.6756 32.7136 76.8544 32.7883 77.0638C32.8682 77.2743 32.8785 77.5214 32.8193 77.8052C32.759 78.0941 32.6231 78.3457 32.4115 78.5599C32.2061 78.7701 31.9253 78.9161 31.569 78.9978C31.2139 79.0745 30.7886 79.0611 30.2934 78.9577ZM36.6211 75.8367C36.9513 75.9056 37.2319 76.0315 37.4629 76.2143C37.6991 76.3982 37.864 76.6399 37.9577 76.9394C38.0524 77.2337 38.0561 77.5898 37.9689 78.0077L37.4747 80.3757L36.5074 80.1738L36.9757 77.9296C37.0522 77.5633 37.0215 77.2716 36.8838 77.0544C36.7513 76.8383 36.5302 76.698 36.2207 76.6334C35.9937 76.586 35.7828 76.5905 35.588 76.6467C35.3932 76.703 35.2274 76.8137 35.0906 76.979C34.9601 77.1402 34.8657 77.3601 34.8076 77.6387L34.3716 79.7281L33.4042 79.5262L34.2666 75.3938L35.1875 75.586L34.955 76.7003L34.8635 76.3259C35.0629 76.093 35.3138 75.9354 35.6163 75.8531C35.925 75.7668 36.26 75.7613 36.6211 75.8367ZM40.6405 81.0929C40.1813 80.9971 39.7977 80.8228 39.4898 80.5701C39.188 80.3133 38.9751 80.0051 38.851 79.6454C38.732 79.2868 38.715 78.9037 38.8001 78.4961C38.8862 78.0834 39.0524 77.7385 39.2987 77.4615C39.5511 77.1804 39.8561 76.9829 40.2137 76.8691C40.5764 76.7564 40.9641 76.7431 41.3768 76.8292C41.7792 76.9132 42.1195 77.0757 42.3976 77.3168C42.6757 77.5579 42.8716 77.8572 42.9854 78.2147C43.0993 78.5723 43.1109 78.9677 43.0205 79.4011C43.0119 79.4424 42.9996 79.4883 42.9837 79.5388C42.9729 79.5904 42.9601 79.6388 42.9453 79.6842L39.5016 78.9655L39.6357 78.3232L42.5686 78.9353L42.1474 79.0574C42.2021 78.8211 42.1967 78.602 42.1312 78.3999C42.0657 78.1978 41.9534 78.0263 41.7944 77.8854C41.6405 77.7456 41.4475 77.6515 41.2153 77.6031C40.978 77.5535 40.7583 77.5615 40.5562 77.627C40.3593 77.6936 40.1898 77.809 40.0479 77.9732C39.9122 78.1333 39.8185 78.3372 39.7668 78.5848L39.7345 78.7396C39.6828 78.9872 39.6938 79.2183 39.7675 79.4329C39.8411 79.6474 39.9704 79.8278 40.1552 79.9741C40.34 80.1203 40.5666 80.2215 40.8349 80.2774C41.067 80.3259 41.2835 80.3334 41.4843 80.2999C41.6851 80.2665 41.8739 80.1874 42.0506 80.0628L42.4448 80.7669C42.2138 80.9448 41.9441 81.0635 41.6356 81.1229C41.3333 81.1783 41.0016 81.1683 40.6405 81.0929ZM45.956 82.1457L46.1304 81.3099L46.1133 81.1206L46.4186 79.658C46.4778 79.3743 46.4384 79.1372 46.3005 78.9469C46.1636 78.7515 45.9223 78.6177 45.5767 78.5456C45.3445 78.4971 45.1074 78.4853 44.8653 78.5102C44.6284 78.5361 44.4191 78.5974 44.2374 78.6941L44.0052 77.9107C44.2626 77.7868 44.5521 77.7153 44.8737 77.6963C45.2015 77.6732 45.5305 77.6961 45.8607 77.765C46.4592 77.8899 46.8908 78.1307 47.1555 78.4874C47.4265 78.8401 47.4995 79.3156 47.3746 79.9141L46.8691 82.3362L45.956 82.1457ZM44.6446 81.9285C44.335 81.8639 44.0749 81.7558 43.8643 81.6042C43.6548 81.4474 43.5049 81.2627 43.4147 81.05C43.3307 80.8333 43.3135 80.6063 43.363 80.369C43.4114 80.1368 43.5092 79.9392 43.6563 79.7761C43.8086 79.614 44.0224 79.5052 44.2978 79.4496C44.5732 79.394 44.9199 79.4099 45.3377 79.4971L46.5372 79.7474L46.4032 80.3897L45.2733 80.1539C44.9432 80.085 44.71 80.0929 44.5739 80.1775C44.4389 80.257 44.3552 80.3741 44.3229 80.5289C44.2863 80.7043 44.3269 80.8582 44.4446 80.9904C44.5624 81.1227 44.7451 81.2146 44.9927 81.2663C45.23 81.3158 45.4529 81.3058 45.6612 81.2362C45.8747 81.1677 46.0448 81.0363 46.1715 80.842L46.2129 81.4563C46.0694 81.6794 45.8624 81.8327 45.592 81.9163C45.3267 82.0009 45.0109 82.005 44.6446 81.9285ZM49.092 81.8392L49.3688 80.629L51.9445 79.0831L53.1053 79.3253L50.8869 80.7844L50.2874 81.1034L49.092 81.8392ZM48.1105 82.5953L49.3089 76.8533L50.2762 77.0552L49.0779 82.7972L48.1105 82.5953ZM51.2292 83.2462L50.1094 81.0662L50.8822 80.42L52.4054 83.4916L51.2292 83.2462ZM54.7875 84.0453C54.3284 83.9495 53.9448 83.7752 53.6368 83.5225C53.3351 83.2657 53.1222 82.9575 52.998 82.5978C52.8791 82.2392 52.8621 81.8561 52.9472 81.4485C53.0333 81.0358 53.1995 80.6909 53.4457 80.4139C53.6982 80.1328 54.0032 79.9353 54.3608 79.8215C54.7235 79.7088 55.1112 79.6955 55.5239 79.7816C55.9263 79.8656 56.2666 80.0281 56.5446 80.2692C56.8227 80.5103 57.0187 80.8096 57.1325 81.1671C57.2463 81.5247 57.258 81.9201 57.1676 82.3535C57.159 82.3948 57.1467 82.4407 57.1308 82.4912C57.12 82.5428 57.1072 82.5912 57.0923 82.6366L53.6487 81.9179L53.7827 81.2756L56.7156 81.8877L56.2945 82.0098C56.3491 81.7735 56.3437 81.5544 56.2782 81.3523C56.2127 81.1502 56.1005 80.9787 55.9414 80.8378C55.7876 80.698 55.5946 80.6039 55.3624 80.5555C55.1251 80.5059 54.9054 80.5139 54.7033 80.5794C54.5063 80.646 54.3369 80.7614 54.1949 80.9256C54.0592 81.0857 53.9656 81.2896 53.9139 81.5372L53.8816 81.692C53.8299 81.9396 53.8409 82.1707 53.9145 82.3853C53.9882 82.5998 54.1175 82.7803 54.3023 82.9265C54.4871 83.0727 54.7137 83.1739 54.9819 83.2298C55.2141 83.2783 55.4306 83.2858 55.6314 83.2523C55.8322 83.2189 56.0209 83.1398 56.1977 83.0152L56.5918 83.7193C56.3609 83.8972 56.0911 84.0159 55.7826 84.0753C55.4804 84.1307 55.1487 84.1207 54.7875 84.0453ZM57.6704 84.5904L58.5328 80.458L59.4537 80.6502L59.2163 81.7878L59.1774 81.4324C59.3593 81.1796 59.5969 81.0085 59.8902 80.9189C60.1886 80.8305 60.5365 80.8277 60.9337 80.9106L60.7415 81.8315C60.7024 81.8126 60.6648 81.7993 60.6287 81.7918C60.5936 81.7791 60.5581 81.769 60.5219 81.7614C60.1556 81.685 59.8416 81.7325 59.5797 81.904C59.3188 82.0703 59.1443 82.3649 59.056 82.788L58.6377 84.7923L57.6704 84.5904ZM62.1855 85.5892C61.8399 85.5171 61.5163 85.4038 61.2147 85.2493C60.9194 85.0908 60.6923 84.9276 60.5335 84.7599L61.0584 84.1023C61.2194 84.2597 61.4207 84.404 61.6625 84.5352C61.9044 84.6664 62.1542 84.759 62.4122 84.8128C62.7166 84.8763 62.9444 84.8808 63.0958 84.8263C63.2523 84.7728 63.3451 84.6764 63.3742 84.5371C63.3979 84.4236 63.3692 84.3288 63.2882 84.2527C63.2082 84.1714 63.0967 84.0996 62.9535 84.0375C62.8104 83.9753 62.6486 83.9119 62.4683 83.8474C62.2931 83.7839 62.117 83.7121 61.9399 83.6321C61.769 83.548 61.6174 83.449 61.485 83.3353C61.3537 83.2163 61.2566 83.075 61.1939 82.9111C61.1312 82.7473 61.1246 82.5467 61.1741 82.3094C61.2291 82.0463 61.3512 81.8349 61.5407 81.6752C61.7312 81.5104 61.9714 81.4044 62.2612 81.3572C62.5572 81.3059 62.891 81.3191 63.2624 81.3966C63.541 81.4547 63.8157 81.5444 64.0865 81.6655C64.3574 81.7866 64.5738 81.9233 64.7358 82.0756L64.211 82.7332C64.0397 82.5736 63.8577 82.4522 63.6652 82.369C63.4788 82.2816 63.2876 82.2175 63.0916 82.1766C62.7975 82.1152 62.5691 82.1133 62.4063 82.1709C62.2487 82.2295 62.1559 82.3259 62.1279 82.46C62.1021 82.5838 62.1291 82.6864 62.2091 82.7677C62.289 82.849 62.4 82.9233 62.5421 82.9906C62.6842 83.0579 62.8428 83.1233 63.018 83.1868C63.1994 83.2462 63.3756 83.318 63.5465 83.4021C63.7173 83.4862 63.869 83.5851 64.0013 83.6989C64.14 83.8086 64.2406 83.9454 64.3034 84.1092C64.3661 84.273 64.3732 84.471 64.3248 84.7032C64.2709 84.9611 64.1467 85.1694 63.9521 85.328C63.7626 85.4876 63.5173 85.5926 63.2161 85.6428C62.916 85.6878 62.5725 85.67 62.1855 85.5892Z" fill="white"/>
</svg>
