<svg width="464" height="675" viewBox="0 0 464 675" fill="none" xmlns="http://www.w3.org/2000/svg">
<g opacity="0.6">
<mask id="mask0_1_2384" style="mask-type:alpha" maskUnits="userSpaceOnUse" x="139" y="139" width="397" height="397">
<circle opacity="0.3" cx="337.501" cy="337.499" r="198" transform="rotate(105 337.501 337.499)" fill="white"/>
</mask>
<g mask="url(#mask0_1_2384)">
<path d="M477.843 514.642L487.284 479.408L452.05 469.967L442.609 505.201L477.843 514.642Z" stroke="black" stroke-width="1.38289" stroke-miterlimit="1.5" stroke-linecap="square" stroke-dasharray="5.53 8.3"/>
<path d="M496.725 444.172L506.166 408.938L470.932 399.497L461.491 434.731L496.725 444.172Z" stroke="black" stroke-width="1.38289" stroke-miterlimit="1.5" stroke-linecap="square" stroke-dasharray="5.53 8.3"/>
<path d="M407.376 495.76L416.816 460.526L381.583 451.085L372.142 486.319L407.376 495.76Z" stroke="black" stroke-width="1.38289" stroke-miterlimit="1.5" stroke-linecap="square" stroke-dasharray="5.53 8.3"/>
<path d="M388.501 566.196L397.942 530.962L362.708 521.522L353.268 556.755L388.501 566.196Z" stroke="black" stroke-width="1.38289" stroke-miterlimit="1.5" stroke-linecap="square" stroke-dasharray="5.53 8.3"/>
<path d="M482.887 213.946L492.328 178.712L457.094 169.271L447.653 204.505L482.887 213.946Z" stroke="black" stroke-width="1.38289" stroke-miterlimit="1.5" stroke-linecap="square" stroke-dasharray="5.53 8.3"/>
<path d="M445.131 354.853L454.572 319.619L419.338 310.178L409.897 345.412L445.131 354.853Z" stroke="black" stroke-width="1.38289" stroke-miterlimit="1.5" stroke-linecap="square" stroke-dasharray="5.53 8.3"/>
<path d="M464.013 284.384L473.454 249.15L438.22 239.709L428.779 274.943L464.013 284.384Z" stroke="black" stroke-width="1.38289" stroke-miterlimit="1.5" stroke-linecap="square" stroke-dasharray="5.53 8.3"/>
<path d="M426.257 425.29L435.698 390.056L400.464 380.615L391.023 415.849L426.257 425.29Z" stroke="black" stroke-width="1.38289" stroke-miterlimit="1.5" stroke-linecap="square" stroke-dasharray="5.53 8.3"/>
<path d="M336.908 476.879L346.349 441.645L311.115 432.204L301.674 467.438L336.908 476.879Z" stroke="black" stroke-width="1.38289" stroke-miterlimit="1.5" stroke-linecap="square" stroke-dasharray="5.53 8.3"/>
<path d="M318.034 547.315L327.475 512.082L292.241 502.641L282.8 537.875L318.034 547.315Z" stroke="black" stroke-width="1.38289" stroke-miterlimit="1.5" stroke-linecap="square" stroke-dasharray="5.53 8.3"/>
<path d="M412.419 195.066L421.86 159.832L386.626 150.391L377.186 185.625L412.419 195.066Z" stroke="black" stroke-width="1.38289" stroke-miterlimit="1.5" stroke-linecap="square" stroke-dasharray="5.53 8.3"/>
<path d="M374.664 335.973L384.104 300.739L348.871 291.298L339.43 326.532L374.664 335.973Z" stroke="black" stroke-width="1.38289" stroke-miterlimit="1.5" stroke-linecap="square" stroke-dasharray="5.53 8.3"/>
<path d="M393.545 265.501L402.986 230.267L367.752 220.826L358.312 256.06L393.545 265.501Z" stroke="black" stroke-width="1.38289" stroke-miterlimit="1.5" stroke-linecap="square" stroke-dasharray="5.53 8.3"/>
<path d="M355.79 406.407L365.23 371.173L329.997 361.732L320.556 396.966L355.79 406.407Z" stroke="black" stroke-width="1.38289" stroke-miterlimit="1.5" stroke-linecap="square" stroke-dasharray="5.53 8.3"/>
<path d="M266.438 457.996L275.879 422.762L240.645 413.321L231.204 448.555L266.438 457.996Z" stroke="black" stroke-width="1.38289" stroke-miterlimit="1.5" stroke-linecap="square" stroke-dasharray="5.53 8.3"/>
<path d="M247.565 528.432L257.006 493.198L221.772 483.758L212.331 518.991L247.565 528.432Z" stroke="black" stroke-width="1.38289" stroke-miterlimit="1.5" stroke-linecap="square" stroke-dasharray="5.53 8.3"/>
<path d="M341.95 176.183L351.391 140.949L316.157 131.508L306.716 166.742L341.95 176.183Z" stroke="black" stroke-width="1.38289" stroke-miterlimit="1.5" stroke-linecap="square" stroke-dasharray="5.53 8.3"/>
<path d="M304.194 317.089L313.635 281.855L278.401 272.414L268.96 307.648L304.194 317.089Z" stroke="black" stroke-width="1.38289" stroke-miterlimit="1.5" stroke-linecap="square" stroke-dasharray="5.53 8.3"/>
<path d="M323.077 246.62L332.518 211.386L297.284 201.945L287.843 237.179L323.077 246.62Z" stroke="black" stroke-width="1.38289" stroke-miterlimit="1.5" stroke-linecap="square" stroke-dasharray="5.53 8.3"/>
<path d="M285.321 387.526L294.762 352.292L259.528 342.851L250.087 378.085L285.321 387.526Z" stroke="black" stroke-width="1.38289" stroke-miterlimit="1.5" stroke-linecap="square" stroke-dasharray="5.53 8.3"/>
<path d="M195.973 439.115L205.414 403.881L170.18 394.44L160.739 429.674L195.973 439.115Z" stroke="black" stroke-width="1.38289" stroke-miterlimit="1.5" stroke-linecap="square" stroke-dasharray="5.53 8.3"/>
<path d="M158.217 580.021L167.658 544.787L132.424 535.346L122.983 570.58L158.217 580.021Z" stroke="black" stroke-width="1.38289" stroke-miterlimit="1.5" stroke-linecap="square" stroke-dasharray="5.53 8.3"/>
<path d="M177.1 509.551L186.541 474.318L151.307 464.877L141.866 500.111L177.1 509.551Z" stroke="black" stroke-width="1.38289" stroke-miterlimit="1.5" stroke-linecap="square" stroke-dasharray="5.53 8.3"/>
<path d="M271.485 157.302L280.926 122.068L245.692 112.627L236.251 147.861L271.485 157.302Z" stroke="black" stroke-width="1.38289" stroke-miterlimit="1.5" stroke-linecap="square" stroke-dasharray="5.53 8.3"/>
<path d="M233.729 298.208L243.17 262.974L207.936 253.533L198.495 288.767L233.729 298.208Z" stroke="black" stroke-width="1.38289" stroke-miterlimit="1.5" stroke-linecap="square" stroke-dasharray="5.53 8.3"/>
<path d="M252.611 227.739L262.052 192.505L226.818 183.064L217.377 218.298L252.611 227.739Z" stroke="black" stroke-width="1.38289" stroke-miterlimit="1.5" stroke-linecap="square" stroke-dasharray="5.53 8.3"/>
<path d="M214.856 368.645L224.297 333.411L189.063 323.97L179.622 359.204L214.856 368.645Z" stroke="black" stroke-width="1.38289" stroke-miterlimit="1.5" stroke-linecap="square" stroke-dasharray="5.53 8.3"/>
<path d="M163.261 279.325L172.702 244.092L137.468 234.651L128.027 269.885L163.261 279.325Z" stroke="black" stroke-width="1.38289" stroke-miterlimit="1.5" stroke-linecap="square" stroke-dasharray="5.53 8.3"/>
<path d="M182.143 208.857L191.584 173.623L156.35 164.182L146.909 199.416L182.143 208.857Z" stroke="black" stroke-width="1.38289" stroke-miterlimit="1.5" stroke-linecap="square" stroke-dasharray="5.53 8.3"/>
<path d="M144.387 349.763L153.828 314.529L118.594 305.088L109.153 340.322L144.387 349.763Z" stroke="black" stroke-width="1.38289" stroke-miterlimit="1.5" stroke-linecap="square" stroke-dasharray="5.53 8.3"/>
<path d="M433.205 540.301L442.646 505.067L407.412 495.626L397.971 530.86L433.205 540.301Z" stroke="black" stroke-width="1.38289" stroke-miterlimit="1.5" stroke-linecap="square" stroke-dasharray="5.53 8.3"/>
<path d="M470.96 399.394L480.4 364.16L445.166 354.719L435.726 389.953L470.96 399.394Z" stroke="black" stroke-width="1.38289" stroke-miterlimit="1.5" stroke-linecap="square" stroke-dasharray="5.53 8.3"/>
<path d="M489.841 328.927L499.282 293.693L464.048 284.253L454.607 319.486L489.841 328.927Z" stroke="black" stroke-width="1.38289" stroke-miterlimit="1.5" stroke-linecap="square" stroke-dasharray="5.53 8.3"/>
<path d="M452.085 469.834L461.526 434.6L426.292 425.159L416.852 460.393L452.085 469.834Z" stroke="black" stroke-width="1.38289" stroke-miterlimit="1.5" stroke-linecap="square" stroke-dasharray="5.53 8.3"/>
<path d="M362.737 521.417L372.178 486.183L336.944 476.742L327.503 511.976L362.737 521.417Z" stroke="black" stroke-width="1.38289" stroke-miterlimit="1.5" stroke-linecap="square" stroke-dasharray="5.53 8.3"/>
<path d="M438.248 239.606L447.688 204.372L412.455 194.931L403.014 230.165L438.248 239.606Z" stroke="black" stroke-width="1.38289" stroke-miterlimit="1.5" stroke-linecap="square" stroke-dasharray="5.53 8.3"/>
<path d="M400.493 380.51L409.934 345.276L374.7 335.835L365.259 371.069L400.493 380.51Z" stroke="black" stroke-width="1.38289" stroke-miterlimit="1.5" stroke-linecap="square" stroke-dasharray="5.53 8.3"/>
<path d="M457.129 169.137L466.57 133.904L431.336 124.463L421.896 159.697L457.129 169.137Z" stroke="black" stroke-width="1.38289" stroke-miterlimit="1.5" stroke-linecap="square" stroke-dasharray="5.53 8.3"/>
<path d="M419.375 310.043L428.815 274.81L393.582 265.369L384.141 300.603L419.375 310.043Z" stroke="black" stroke-width="1.38289" stroke-miterlimit="1.5" stroke-linecap="square" stroke-dasharray="5.53 8.3"/>
<path d="M381.618 450.95L391.059 415.716L355.825 406.275L346.384 441.509L381.618 450.95Z" stroke="black" stroke-width="1.38289" stroke-miterlimit="1.5" stroke-linecap="square" stroke-dasharray="5.53 8.3"/>
<path d="M292.268 502.537L301.709 467.303L266.475 457.862L257.034 493.096L292.268 502.537Z" stroke="black" stroke-width="1.38289" stroke-miterlimit="1.5" stroke-linecap="square" stroke-dasharray="5.53 8.3"/>
<path d="M273.393 572.976L282.834 537.742L247.6 528.301L238.159 563.535L273.393 572.976Z" stroke="black" stroke-width="1.38289" stroke-miterlimit="1.5" stroke-linecap="square" stroke-dasharray="5.53 8.3"/>
<path d="M367.779 220.725L377.22 185.491L341.986 176.05L332.545 211.284L367.779 220.725Z" stroke="black" stroke-width="1.38289" stroke-miterlimit="1.5" stroke-linecap="square" stroke-dasharray="5.53 8.3"/>
<path d="M330.023 361.63L339.464 326.396L304.23 316.955L294.789 352.189L330.023 361.63Z" stroke="black" stroke-width="1.38289" stroke-miterlimit="1.5" stroke-linecap="square" stroke-dasharray="5.53 8.3"/>
<path d="M386.661 150.258L396.102 115.024L360.868 105.583L351.427 140.817L386.661 150.258Z" stroke="black" stroke-width="1.38289" stroke-miterlimit="1.5" stroke-linecap="square" stroke-dasharray="5.53 8.3"/>
<path d="M348.905 291.164L358.346 255.93L323.112 246.489L313.671 281.723L348.905 291.164Z" stroke="black" stroke-width="1.38289" stroke-miterlimit="1.5" stroke-linecap="square" stroke-dasharray="5.53 8.3"/>
<path d="M311.149 432.07L320.59 396.836L285.356 387.396L275.915 422.629L311.149 432.07Z" stroke="black" stroke-width="1.38289" stroke-miterlimit="1.5" stroke-linecap="square" stroke-dasharray="5.53 8.3"/>
<path d="M221.799 483.653L231.24 448.419L196.006 438.979L186.565 474.212L221.799 483.653Z" stroke="black" stroke-width="1.38289" stroke-miterlimit="1.5" stroke-linecap="square" stroke-dasharray="5.53 8.3"/>
<path d="M202.925 554.093L212.366 518.86L177.132 509.419L167.691 544.653L202.925 554.093Z" stroke="black" stroke-width="1.38289" stroke-miterlimit="1.5" stroke-linecap="square" stroke-dasharray="5.53 8.3"/>
<path d="M297.311 201.843L306.752 166.609L271.518 157.168L262.077 192.402L297.311 201.843Z" stroke="black" stroke-width="1.38289" stroke-miterlimit="1.5" stroke-linecap="square" stroke-dasharray="5.53 8.3"/>
<path d="M259.555 342.747L268.996 307.513L233.762 298.073L224.321 333.306L259.555 342.747Z" stroke="black" stroke-width="1.38289" stroke-miterlimit="1.5" stroke-linecap="square" stroke-dasharray="5.53 8.3"/>
<path d="M278.437 272.28L287.878 237.046L252.644 227.605L243.203 262.839L278.437 272.28Z" stroke="black" stroke-width="1.38289" stroke-miterlimit="1.5" stroke-linecap="square" stroke-dasharray="5.53 8.3"/>
<path d="M240.681 413.186L250.122 377.952L214.888 368.511L205.447 403.745L240.681 413.186Z" stroke="black" stroke-width="1.38289" stroke-miterlimit="1.5" stroke-linecap="square" stroke-dasharray="5.53 8.3"/>
<path d="M151.335 464.772L160.775 429.538L125.541 420.097L116.101 455.331L151.335 464.772Z" stroke="black" stroke-width="1.38289" stroke-miterlimit="1.5" stroke-linecap="square" stroke-dasharray="5.53 8.3"/>
<path d="M132.46 535.212L141.901 499.979L106.667 490.538L97.2266 525.771L132.46 535.212Z" stroke="black" stroke-width="1.38289" stroke-miterlimit="1.5" stroke-linecap="square" stroke-dasharray="5.53 8.3"/>
<path d="M226.845 182.962L236.286 147.728L201.052 138.287L191.611 173.521L226.845 182.962Z" stroke="black" stroke-width="1.38289" stroke-miterlimit="1.5" stroke-linecap="square" stroke-dasharray="5.53 8.3"/>
<path d="M189.09 323.866L198.531 288.632L163.297 279.192L153.856 314.425L189.09 323.866Z" stroke="black" stroke-width="1.38289" stroke-miterlimit="1.5" stroke-linecap="square" stroke-dasharray="5.53 8.3"/>
<path d="M207.971 253.4L217.412 218.166L182.178 208.725L172.737 243.959L207.971 253.4Z" stroke="black" stroke-width="1.38289" stroke-miterlimit="1.5" stroke-linecap="square" stroke-dasharray="5.53 8.3"/>
<path d="M170.216 394.306L179.657 359.072L144.423 349.631L134.982 384.865L170.216 394.306Z" stroke="black" stroke-width="1.38289" stroke-miterlimit="1.5" stroke-linecap="square" stroke-dasharray="5.53 8.3"/>
<path d="M156.376 164.081L165.817 128.847L130.583 119.407L121.143 154.64L156.376 164.081Z" stroke="black" stroke-width="1.38289" stroke-miterlimit="1.5" stroke-linecap="square" stroke-dasharray="5.53 8.3"/>
<path d="M137.503 234.516L146.944 199.283L111.71 189.842L102.27 225.076L137.503 234.516Z" stroke="black" stroke-width="1.38289" stroke-miterlimit="1.5" stroke-linecap="square" stroke-dasharray="5.53 8.3"/>
<g style="mix-blend-mode:darken">
<rect x="644.86" y="148.613" width="518" height="516" transform="rotate(105 644.86 148.613)" fill="url(#paint0_linear_1_2384)"/>
</g>
</g>
</g>
<defs>
<linearGradient id="paint0_linear_1_2384" x1="903.86" y1="34.6129" x2="903.86" y2="510.613" gradientUnits="userSpaceOnUse">
<stop stop-color="#CCFF00"/>
<stop offset="1" stop-color="white"/>
</linearGradient>
</defs>
</svg>
