<svg width="1440" height="1233" viewBox="0 0 1440 1233" fill="none" xmlns="http://www.w3.org/2000/svg">
<mask id="mask0_1_2205" style="mask-type:alpha" maskUnits="userSpaceOnUse" x="-3" y="173" width="526" height="526">
<circle opacity="0.3" cx="259.539" cy="435.539" r="262.539" fill="white"/>
</mask>
<g mask="url(#mask0_1_2205)">
<g opacity="0.6">
<path d="M438.254 195H389.888V243.366H438.254V195Z" stroke="black" stroke-width="1.83365" stroke-miterlimit="1.5" stroke-linecap="square" stroke-dasharray="7.33 11"/>
<path d="M534.946 194.999H486.579V243.366H534.946V194.999Z" stroke="black" stroke-width="1.83365" stroke-miterlimit="1.5" stroke-linecap="square" stroke-dasharray="7.33 11"/>
<path d="M51.4017 194.999H3.03516L3.03516 243.366H51.4017L51.4017 194.999Z" stroke="black" stroke-width="1.83365" stroke-miterlimit="1.5" stroke-linecap="square" stroke-dasharray="7.33 11"/>
<path d="M244.827 194.999H196.461V243.366H244.827V194.999Z" stroke="black" stroke-width="1.83365" stroke-miterlimit="1.5" stroke-linecap="square" stroke-dasharray="7.33 11"/>
<path d="M148.092 195H99.7256L99.7256 243.366H148.092V195Z" stroke="black" stroke-width="1.83365" stroke-miterlimit="1.5" stroke-linecap="square" stroke-dasharray="7.33 11"/>
<path d="M341.518 195H293.151V243.366H341.518V195Z" stroke="black" stroke-width="1.83365" stroke-miterlimit="1.5" stroke-linecap="square" stroke-dasharray="7.33 11"/>
<path d="M438.254 291.733H389.888V340.1H438.254V291.733Z" stroke="black" stroke-width="1.83365" stroke-miterlimit="1.5" stroke-linecap="square" stroke-dasharray="7.33 11"/>
<path d="M534.945 291.733H486.578V340.1H534.945V291.733Z" stroke="black" stroke-width="1.83365" stroke-miterlimit="1.5" stroke-linecap="square" stroke-dasharray="7.33 11"/>
<path d="M51.3998 291.733H3.0332L3.0332 340.099H51.3998L51.3998 291.733Z" stroke="black" stroke-width="1.83365" stroke-miterlimit="1.5" stroke-linecap="square" stroke-dasharray="7.33 11"/>
<path d="M244.827 291.733H196.461V340.1H244.827V291.733Z" stroke="black" stroke-width="1.83365" stroke-miterlimit="1.5" stroke-linecap="square" stroke-dasharray="7.33 11"/>
<path d="M148.092 291.733H99.7256L99.7256 340.1H148.092V291.733Z" stroke="black" stroke-width="1.83365" stroke-miterlimit="1.5" stroke-linecap="square" stroke-dasharray="7.33 11"/>
<path d="M341.518 291.733H293.151V340.1H341.518V291.733Z" stroke="black" stroke-width="1.83365" stroke-miterlimit="1.5" stroke-linecap="square" stroke-dasharray="7.33 11"/>
<path d="M438.255 388.466H389.889V436.832H438.255V388.466Z" stroke="black" stroke-width="1.83365" stroke-miterlimit="1.5" stroke-linecap="square" stroke-dasharray="7.33 11"/>
<path d="M534.946 388.466H486.579V436.832H534.946V388.466Z" stroke="black" stroke-width="1.83365" stroke-miterlimit="1.5" stroke-linecap="square" stroke-dasharray="7.33 11"/>
<path d="M51.4027 388.466H3.03613L3.03613 436.832H51.4027L51.4027 388.466Z" stroke="black" stroke-width="1.83365" stroke-miterlimit="1.5" stroke-linecap="square" stroke-dasharray="7.33 11"/>
<path d="M244.829 388.466H196.463V436.832H244.829V388.466Z" stroke="black" stroke-width="1.83365" stroke-miterlimit="1.5" stroke-linecap="square" stroke-dasharray="7.33 11"/>
<path d="M148.091 388.466H99.7246L99.7246 436.833H148.091V388.466Z" stroke="black" stroke-width="1.83365" stroke-miterlimit="1.5" stroke-linecap="square" stroke-dasharray="7.33 11"/>
<path d="M341.517 388.466H293.15V436.833H341.517V388.466Z" stroke="black" stroke-width="1.83365" stroke-miterlimit="1.5" stroke-linecap="square" stroke-dasharray="7.33 11"/>
<path d="M438.254 485.201H389.888V533.568H438.254V485.201Z" stroke="black" stroke-width="1.83365" stroke-miterlimit="1.5" stroke-linecap="square" stroke-dasharray="7.33 11"/>
<path d="M534.945 485.201H486.578V533.568H534.945V485.201Z" stroke="black" stroke-width="1.83365" stroke-miterlimit="1.5" stroke-linecap="square" stroke-dasharray="7.33 11"/>
<path d="M51.4017 485.201H3.03516L3.03516 533.568H51.4017L51.4017 485.201Z" stroke="black" stroke-width="1.83365" stroke-miterlimit="1.5" stroke-linecap="square" stroke-dasharray="7.33 11"/>
<path d="M244.827 485.201H196.461V533.568H244.827V485.201Z" stroke="black" stroke-width="1.83365" stroke-miterlimit="1.5" stroke-linecap="square" stroke-dasharray="7.33 11"/>
<path d="M148.092 485.201H99.7256L99.7256 533.568H148.092V485.201Z" stroke="black" stroke-width="1.83365" stroke-miterlimit="1.5" stroke-linecap="square" stroke-dasharray="7.33 11"/>
<path d="M341.518 485.201H293.151V533.568H341.518V485.201Z" stroke="black" stroke-width="1.83365" stroke-miterlimit="1.5" stroke-linecap="square" stroke-dasharray="7.33 11"/>
<path d="M438.254 581.93H389.888V630.297H438.254V581.93Z" stroke="black" stroke-width="1.83365" stroke-miterlimit="1.5" stroke-linecap="square" stroke-dasharray="7.33 11"/>
<path d="M534.945 581.931H486.578V630.297H534.945V581.931Z" stroke="black" stroke-width="1.83365" stroke-miterlimit="1.5" stroke-linecap="square" stroke-dasharray="7.33 11"/>
<path d="M51.4017 581.93H3.03516L3.03516 630.297H51.4017L51.4017 581.93Z" stroke="black" stroke-width="1.83365" stroke-miterlimit="1.5" stroke-linecap="square" stroke-dasharray="7.33 11"/>
<path d="M244.827 581.93H196.461V630.297H244.827V581.93Z" stroke="black" stroke-width="1.83365" stroke-miterlimit="1.5" stroke-linecap="square" stroke-dasharray="7.33 11"/>
<path d="M148.092 581.931H99.7256L99.7256 630.297H148.092V581.931Z" stroke="black" stroke-width="1.83365" stroke-miterlimit="1.5" stroke-linecap="square" stroke-dasharray="7.33 11"/>
<path d="M341.518 581.931H293.151V630.297H341.518V581.931Z" stroke="black" stroke-width="1.83365" stroke-miterlimit="1.5" stroke-linecap="square" stroke-dasharray="7.33 11"/>
<path d="M438.252 678.665H389.886V727.031H438.252V678.665Z" stroke="black" stroke-width="1.83365" stroke-miterlimit="1.5" stroke-linecap="square" stroke-dasharray="7.33 11"/>
<path d="M534.943 678.665H486.576V727.031H534.943V678.665Z" stroke="black" stroke-width="1.83365" stroke-miterlimit="1.5" stroke-linecap="square" stroke-dasharray="7.33 11"/>
<path d="M51.3998 678.665H3.0332L3.0332 727.031H51.3998L51.3998 678.665Z" stroke="black" stroke-width="1.83365" stroke-miterlimit="1.5" stroke-linecap="square" stroke-dasharray="7.33 11"/>
<path d="M244.827 678.665H196.46V727.031H244.827V678.665Z" stroke="black" stroke-width="1.83365" stroke-miterlimit="1.5" stroke-linecap="square" stroke-dasharray="7.33 11"/>
<path d="M148.092 678.664H99.7256L99.7256 727.031H148.092V678.664Z" stroke="black" stroke-width="1.83365" stroke-miterlimit="1.5" stroke-linecap="square" stroke-dasharray="7.33 11"/>
<path d="M341.518 678.664H293.151V727.031H341.518V678.664Z" stroke="black" stroke-width="1.83365" stroke-miterlimit="1.5" stroke-linecap="square" stroke-dasharray="7.33 11"/>
<path d="M486.435 146.633H438.068V195H486.435V146.633Z" stroke="black" stroke-width="1.83365" stroke-miterlimit="1.5" stroke-linecap="square" stroke-dasharray="7.33 11"/>
<path d="M99.5843 146.633H51.2178L51.2178 195H99.5843V146.633Z" stroke="black" stroke-width="1.83365" stroke-miterlimit="1.5" stroke-linecap="square" stroke-dasharray="7.33 11"/>
<path d="M293.009 146.633H244.643V195H293.009V146.633Z" stroke="black" stroke-width="1.83365" stroke-miterlimit="1.5" stroke-linecap="square" stroke-dasharray="7.33 11"/>
<path d="M2.84995 146.633H-45.5166L-45.5166 195H2.84995L2.84995 146.633Z" stroke="black" stroke-width="1.83365" stroke-miterlimit="1.5" stroke-linecap="square" stroke-dasharray="7.33 11"/>
<path d="M196.276 146.633H147.909V195H196.276V146.633Z" stroke="black" stroke-width="1.83365" stroke-miterlimit="1.5" stroke-linecap="square" stroke-dasharray="7.33 11"/>
<path d="M389.703 146.633H341.337V195H389.703V146.633Z" stroke="black" stroke-width="1.83365" stroke-miterlimit="1.5" stroke-linecap="square" stroke-dasharray="7.33 11"/>
<path d="M486.437 243.366H438.07V291.733H486.437V243.366Z" stroke="black" stroke-width="1.83365" stroke-miterlimit="1.5" stroke-linecap="square" stroke-dasharray="7.33 11"/>
<path d="M99.5853 243.366H51.2188L51.2188 291.733H99.5853V243.366Z" stroke="black" stroke-width="1.83365" stroke-miterlimit="1.5" stroke-linecap="square" stroke-dasharray="7.33 11"/>
<path d="M293.01 243.366H244.644V291.733H293.01V243.366Z" stroke="black" stroke-width="1.83365" stroke-miterlimit="1.5" stroke-linecap="square" stroke-dasharray="7.33 11"/>
<path d="M2.85288 243.366H-45.5137L-45.5137 291.733H2.85288L2.85288 243.366Z" stroke="black" stroke-width="1.83365" stroke-miterlimit="1.5" stroke-linecap="square" stroke-dasharray="7.33 11"/>
<path d="M196.279 243.366H147.912V291.733H196.279V243.366Z" stroke="black" stroke-width="1.83365" stroke-miterlimit="1.5" stroke-linecap="square" stroke-dasharray="7.33 11"/>
<path d="M389.705 243.366H341.339V291.733H389.705V243.366Z" stroke="black" stroke-width="1.83365" stroke-miterlimit="1.5" stroke-linecap="square" stroke-dasharray="7.33 11"/>
<path d="M486.435 340.1H438.068V388.466H486.435V340.1Z" stroke="black" stroke-width="1.83365" stroke-miterlimit="1.5" stroke-linecap="square" stroke-dasharray="7.33 11"/>
<path d="M99.5843 340.1H51.2178L51.2178 388.466H99.5843V340.1Z" stroke="black" stroke-width="1.83365" stroke-miterlimit="1.5" stroke-linecap="square" stroke-dasharray="7.33 11"/>
<path d="M293.007 340.1H244.641V388.466H293.007V340.1Z" stroke="black" stroke-width="1.83365" stroke-miterlimit="1.5" stroke-linecap="square" stroke-dasharray="7.33 11"/>
<path d="M2.84995 340.1H-45.5166L-45.5166 388.466H2.84995L2.84995 340.1Z" stroke="black" stroke-width="1.83365" stroke-miterlimit="1.5" stroke-linecap="square" stroke-dasharray="7.33 11"/>
<path d="M196.276 340.1H147.909V388.466H196.276V340.1Z" stroke="black" stroke-width="1.83365" stroke-miterlimit="1.5" stroke-linecap="square" stroke-dasharray="7.33 11"/>
<path d="M389.702 340.1H341.336V388.466H389.702V340.1Z" stroke="black" stroke-width="1.83365" stroke-miterlimit="1.5" stroke-linecap="square" stroke-dasharray="7.33 11"/>
<path d="M486.437 436.834H438.07V485.201H486.437V436.834Z" stroke="black" stroke-width="1.83365" stroke-miterlimit="1.5" stroke-linecap="square" stroke-dasharray="7.33 11"/>
<path d="M99.5853 436.834H51.2188L51.2188 485.201H99.5853V436.834Z" stroke="black" stroke-width="1.83365" stroke-miterlimit="1.5" stroke-linecap="square" stroke-dasharray="7.33 11"/>
<path d="M293.01 436.834H244.644V485.201H293.01V436.834Z" stroke="black" stroke-width="1.83365" stroke-miterlimit="1.5" stroke-linecap="square" stroke-dasharray="7.33 11"/>
<path d="M2.85288 436.834H-45.5137L-45.5137 485.2H2.85288L2.85288 436.834Z" stroke="black" stroke-width="1.83365" stroke-miterlimit="1.5" stroke-linecap="square" stroke-dasharray="7.33 11"/>
<path d="M196.279 436.834H147.912V485.2H196.279V436.834Z" stroke="black" stroke-width="1.83365" stroke-miterlimit="1.5" stroke-linecap="square" stroke-dasharray="7.33 11"/>
<path d="M389.705 436.834H341.339V485.201H389.705V436.834Z" stroke="black" stroke-width="1.83365" stroke-miterlimit="1.5" stroke-linecap="square" stroke-dasharray="7.33 11"/>
<path d="M486.435 533.568H438.068V581.935H486.435V533.568Z" stroke="black" stroke-width="1.83365" stroke-miterlimit="1.5" stroke-linecap="square" stroke-dasharray="7.33 11"/>
<path d="M99.5853 533.568H51.2188L51.2188 581.934H99.5853V533.568Z" stroke="black" stroke-width="1.83365" stroke-miterlimit="1.5" stroke-linecap="square" stroke-dasharray="7.33 11"/>
<path d="M293.009 533.568H244.643V581.935H293.009V533.568Z" stroke="black" stroke-width="1.83365" stroke-miterlimit="1.5" stroke-linecap="square" stroke-dasharray="7.33 11"/>
<path d="M2.84995 533.568H-45.5166L-45.5166 581.934H2.84995L2.84995 533.568Z" stroke="black" stroke-width="1.83365" stroke-miterlimit="1.5" stroke-linecap="square" stroke-dasharray="7.33 11"/>
<path d="M196.276 533.568H147.909V581.934H196.276V533.568Z" stroke="black" stroke-width="1.83365" stroke-miterlimit="1.5" stroke-linecap="square" stroke-dasharray="7.33 11"/>
<path d="M389.702 533.568H341.336V581.935H389.702V533.568Z" stroke="black" stroke-width="1.83365" stroke-miterlimit="1.5" stroke-linecap="square" stroke-dasharray="7.33 11"/>
<path d="M486.435 630.298H438.068V678.664H486.435V630.298Z" stroke="black" stroke-width="1.83365" stroke-miterlimit="1.5" stroke-linecap="square" stroke-dasharray="7.33 11"/>
<path d="M99.5853 630.298H51.2188L51.2188 678.664H99.5853V630.298Z" stroke="black" stroke-width="1.83365" stroke-miterlimit="1.5" stroke-linecap="square" stroke-dasharray="7.33 11"/>
<path d="M293.009 630.298H244.643V678.664H293.009V630.298Z" stroke="black" stroke-width="1.83365" stroke-miterlimit="1.5" stroke-linecap="square" stroke-dasharray="7.33 11"/>
<path d="M2.85093 630.297H-45.5156L-45.5156 678.664H2.85093L2.85093 630.297Z" stroke="black" stroke-width="1.83365" stroke-miterlimit="1.5" stroke-linecap="square" stroke-dasharray="7.33 11"/>
<path d="M196.278 630.298H147.911V678.664H196.278V630.298Z" stroke="black" stroke-width="1.83365" stroke-miterlimit="1.5" stroke-linecap="square" stroke-dasharray="7.33 11"/>
<path d="M389.703 630.298H341.337V678.664H389.703V630.298Z" stroke="black" stroke-width="1.83365" stroke-miterlimit="1.5" stroke-linecap="square" stroke-dasharray="7.33 11"/>
</g>
<g style="mix-blend-mode:darken">
<rect x="-87.8623" y="106.703" width="686.845" height="684.193" fill="url(#paint0_linear_1_2205)"/>
</g>
</g>
<g opacity="0.6">
<mask id="mask1_1_2205" style="mask-type:alpha" maskUnits="userSpaceOnUse" x="1115" y="697" width="397" height="397">
<circle opacity="0.3" cx="1313.5" cy="895.499" r="198" transform="rotate(105 1313.5 895.499)" fill="white"/>
</mask>
<g mask="url(#mask1_1_2205)">
<path d="M1453.84 1072.64L1463.28 1037.41L1428.05 1027.97L1418.61 1063.2L1453.84 1072.64Z" stroke="black" stroke-width="1.38289" stroke-miterlimit="1.5" stroke-linecap="square" stroke-dasharray="5.53 8.3"/>
<path d="M1472.73 1002.17L1482.17 966.938L1446.93 957.497L1437.49 992.731L1472.73 1002.17Z" stroke="black" stroke-width="1.38289" stroke-miterlimit="1.5" stroke-linecap="square" stroke-dasharray="5.53 8.3"/>
<path d="M1383.38 1053.76L1392.82 1018.53L1357.58 1009.08L1348.14 1044.32L1383.38 1053.76Z" stroke="black" stroke-width="1.38289" stroke-miterlimit="1.5" stroke-linecap="square" stroke-dasharray="5.53 8.3"/>
<path d="M1364.5 1124.2L1373.94 1088.96L1338.71 1079.52L1329.27 1114.76L1364.5 1124.2Z" stroke="black" stroke-width="1.38289" stroke-miterlimit="1.5" stroke-linecap="square" stroke-dasharray="5.53 8.3"/>
<path d="M1458.89 771.946L1468.33 736.712L1433.09 727.271L1423.65 762.505L1458.89 771.946Z" stroke="black" stroke-width="1.38289" stroke-miterlimit="1.5" stroke-linecap="square" stroke-dasharray="5.53 8.3"/>
<path d="M1421.13 912.853L1430.57 877.619L1395.34 868.178L1385.9 903.412L1421.13 912.853Z" stroke="black" stroke-width="1.38289" stroke-miterlimit="1.5" stroke-linecap="square" stroke-dasharray="5.53 8.3"/>
<path d="M1440.01 842.384L1449.45 807.15L1414.22 797.709L1404.78 832.943L1440.01 842.384Z" stroke="black" stroke-width="1.38289" stroke-miterlimit="1.5" stroke-linecap="square" stroke-dasharray="5.53 8.3"/>
<path d="M1402.26 983.29L1411.7 948.056L1376.46 938.615L1367.02 973.849L1402.26 983.29Z" stroke="black" stroke-width="1.38289" stroke-miterlimit="1.5" stroke-linecap="square" stroke-dasharray="5.53 8.3"/>
<path d="M1312.91 1034.88L1322.35 999.645L1287.11 990.204L1277.67 1025.44L1312.91 1034.88Z" stroke="black" stroke-width="1.38289" stroke-miterlimit="1.5" stroke-linecap="square" stroke-dasharray="5.53 8.3"/>
<path d="M1294.03 1105.32L1303.47 1070.08L1268.24 1060.64L1258.8 1095.87L1294.03 1105.32Z" stroke="black" stroke-width="1.38289" stroke-miterlimit="1.5" stroke-linecap="square" stroke-dasharray="5.53 8.3"/>
<path d="M1388.42 753.066L1397.86 717.832L1362.63 708.391L1353.19 743.625L1388.42 753.066Z" stroke="black" stroke-width="1.38289" stroke-miterlimit="1.5" stroke-linecap="square" stroke-dasharray="5.53 8.3"/>
<path d="M1350.66 893.973L1360.1 858.739L1324.87 849.298L1315.43 884.532L1350.66 893.973Z" stroke="black" stroke-width="1.38289" stroke-miterlimit="1.5" stroke-linecap="square" stroke-dasharray="5.53 8.3"/>
<path d="M1369.55 823.501L1378.99 788.267L1343.75 778.826L1334.31 814.06L1369.55 823.501Z" stroke="black" stroke-width="1.38289" stroke-miterlimit="1.5" stroke-linecap="square" stroke-dasharray="5.53 8.3"/>
<path d="M1331.79 964.407L1341.23 929.173L1306 919.732L1296.56 954.966L1331.79 964.407Z" stroke="black" stroke-width="1.38289" stroke-miterlimit="1.5" stroke-linecap="square" stroke-dasharray="5.53 8.3"/>
<path d="M1242.44 1016L1251.88 980.762L1216.65 971.321L1207.2 1006.55L1242.44 1016Z" stroke="black" stroke-width="1.38289" stroke-miterlimit="1.5" stroke-linecap="square" stroke-dasharray="5.53 8.3"/>
<path d="M1223.56 1086.43L1233.01 1051.2L1197.77 1041.76L1188.33 1076.99L1223.56 1086.43Z" stroke="black" stroke-width="1.38289" stroke-miterlimit="1.5" stroke-linecap="square" stroke-dasharray="5.53 8.3"/>
<path d="M1317.95 734.183L1327.39 698.949L1292.16 689.508L1282.72 724.742L1317.95 734.183Z" stroke="black" stroke-width="1.38289" stroke-miterlimit="1.5" stroke-linecap="square" stroke-dasharray="5.53 8.3"/>
<path d="M1280.19 875.089L1289.63 839.855L1254.4 830.414L1244.96 865.648L1280.19 875.089Z" stroke="black" stroke-width="1.38289" stroke-miterlimit="1.5" stroke-linecap="square" stroke-dasharray="5.53 8.3"/>
<path d="M1299.08 804.62L1308.52 769.386L1273.28 759.945L1263.84 795.179L1299.08 804.62Z" stroke="black" stroke-width="1.38289" stroke-miterlimit="1.5" stroke-linecap="square" stroke-dasharray="5.53 8.3"/>
<path d="M1261.32 945.526L1270.76 910.292L1235.53 900.851L1226.09 936.085L1261.32 945.526Z" stroke="black" stroke-width="1.38289" stroke-miterlimit="1.5" stroke-linecap="square" stroke-dasharray="5.53 8.3"/>
<path d="M1171.97 997.115L1181.41 961.881L1146.18 952.44L1136.74 987.674L1171.97 997.115Z" stroke="black" stroke-width="1.38289" stroke-miterlimit="1.5" stroke-linecap="square" stroke-dasharray="5.53 8.3"/>
<path d="M1134.22 1138.02L1143.66 1102.79L1108.42 1093.35L1098.98 1128.58L1134.22 1138.02Z" stroke="black" stroke-width="1.38289" stroke-miterlimit="1.5" stroke-linecap="square" stroke-dasharray="5.53 8.3"/>
<path d="M1153.1 1067.55L1162.54 1032.32L1127.31 1022.88L1117.87 1058.11L1153.1 1067.55Z" stroke="black" stroke-width="1.38289" stroke-miterlimit="1.5" stroke-linecap="square" stroke-dasharray="5.53 8.3"/>
<path d="M1247.48 715.302L1256.93 680.068L1221.69 670.627L1212.25 705.861L1247.48 715.302Z" stroke="black" stroke-width="1.38289" stroke-miterlimit="1.5" stroke-linecap="square" stroke-dasharray="5.53 8.3"/>
<path d="M1209.73 856.208L1219.17 820.974L1183.94 811.533L1174.5 846.767L1209.73 856.208Z" stroke="black" stroke-width="1.38289" stroke-miterlimit="1.5" stroke-linecap="square" stroke-dasharray="5.53 8.3"/>
<path d="M1228.61 785.739L1238.05 750.505L1202.82 741.064L1193.38 776.298L1228.61 785.739Z" stroke="black" stroke-width="1.38289" stroke-miterlimit="1.5" stroke-linecap="square" stroke-dasharray="5.53 8.3"/>
<path d="M1190.86 926.645L1200.3 891.411L1165.06 881.97L1155.62 917.204L1190.86 926.645Z" stroke="black" stroke-width="1.38289" stroke-miterlimit="1.5" stroke-linecap="square" stroke-dasharray="5.53 8.3"/>
<path d="M1139.26 837.325L1148.7 802.092L1113.47 792.651L1104.03 827.885L1139.26 837.325Z" stroke="black" stroke-width="1.38289" stroke-miterlimit="1.5" stroke-linecap="square" stroke-dasharray="5.53 8.3"/>
<path d="M1158.14 766.857L1167.58 731.623L1132.35 722.182L1122.91 757.416L1158.14 766.857Z" stroke="black" stroke-width="1.38289" stroke-miterlimit="1.5" stroke-linecap="square" stroke-dasharray="5.53 8.3"/>
<path d="M1120.39 907.763L1129.83 872.529L1094.59 863.088L1085.15 898.322L1120.39 907.763Z" stroke="black" stroke-width="1.38289" stroke-miterlimit="1.5" stroke-linecap="square" stroke-dasharray="5.53 8.3"/>
<path d="M1409.2 1098.3L1418.65 1063.07L1383.41 1053.63L1373.97 1088.86L1409.2 1098.3Z" stroke="black" stroke-width="1.38289" stroke-miterlimit="1.5" stroke-linecap="square" stroke-dasharray="5.53 8.3"/>
<path d="M1446.96 957.394L1456.4 922.16L1421.17 912.719L1411.73 947.953L1446.96 957.394Z" stroke="black" stroke-width="1.38289" stroke-miterlimit="1.5" stroke-linecap="square" stroke-dasharray="5.53 8.3"/>
<path d="M1465.84 886.927L1475.28 851.693L1440.05 842.253L1430.61 877.486L1465.84 886.927Z" stroke="black" stroke-width="1.38289" stroke-miterlimit="1.5" stroke-linecap="square" stroke-dasharray="5.53 8.3"/>
<path d="M1428.09 1027.83L1437.53 992.6L1402.29 983.159L1392.85 1018.39L1428.09 1027.83Z" stroke="black" stroke-width="1.38289" stroke-miterlimit="1.5" stroke-linecap="square" stroke-dasharray="5.53 8.3"/>
<path d="M1338.74 1079.42L1348.18 1044.18L1312.94 1034.74L1303.5 1069.98L1338.74 1079.42Z" stroke="black" stroke-width="1.38289" stroke-miterlimit="1.5" stroke-linecap="square" stroke-dasharray="5.53 8.3"/>
<path d="M1414.25 797.606L1423.69 762.372L1388.45 752.931L1379.01 788.165L1414.25 797.606Z" stroke="black" stroke-width="1.38289" stroke-miterlimit="1.5" stroke-linecap="square" stroke-dasharray="5.53 8.3"/>
<path d="M1376.49 938.51L1385.93 903.276L1350.7 893.835L1341.26 929.069L1376.49 938.51Z" stroke="black" stroke-width="1.38289" stroke-miterlimit="1.5" stroke-linecap="square" stroke-dasharray="5.53 8.3"/>
<path d="M1433.13 727.137L1442.57 691.904L1407.34 682.463L1397.9 717.697L1433.13 727.137Z" stroke="black" stroke-width="1.38289" stroke-miterlimit="1.5" stroke-linecap="square" stroke-dasharray="5.53 8.3"/>
<path d="M1395.37 868.043L1404.82 832.81L1369.58 823.369L1360.14 858.603L1395.37 868.043Z" stroke="black" stroke-width="1.38289" stroke-miterlimit="1.5" stroke-linecap="square" stroke-dasharray="5.53 8.3"/>
<path d="M1357.62 1008.95L1367.06 973.716L1331.82 964.275L1322.38 999.509L1357.62 1008.95Z" stroke="black" stroke-width="1.38289" stroke-miterlimit="1.5" stroke-linecap="square" stroke-dasharray="5.53 8.3"/>
<path d="M1268.27 1060.54L1277.71 1025.3L1242.48 1015.86L1233.03 1051.1L1268.27 1060.54Z" stroke="black" stroke-width="1.38289" stroke-miterlimit="1.5" stroke-linecap="square" stroke-dasharray="5.53 8.3"/>
<path d="M1249.39 1130.98L1258.83 1095.74L1223.6 1086.3L1214.16 1121.54L1249.39 1130.98Z" stroke="black" stroke-width="1.38289" stroke-miterlimit="1.5" stroke-linecap="square" stroke-dasharray="5.53 8.3"/>
<path d="M1343.78 778.725L1353.22 743.491L1317.99 734.05L1308.54 769.284L1343.78 778.725Z" stroke="black" stroke-width="1.38289" stroke-miterlimit="1.5" stroke-linecap="square" stroke-dasharray="5.53 8.3"/>
<path d="M1306.02 919.63L1315.46 884.396L1280.23 874.955L1270.79 910.189L1306.02 919.63Z" stroke="black" stroke-width="1.38289" stroke-miterlimit="1.5" stroke-linecap="square" stroke-dasharray="5.53 8.3"/>
<path d="M1362.66 708.258L1372.1 673.024L1336.87 663.583L1327.43 698.817L1362.66 708.258Z" stroke="black" stroke-width="1.38289" stroke-miterlimit="1.5" stroke-linecap="square" stroke-dasharray="5.53 8.3"/>
<path d="M1324.9 849.164L1334.35 813.93L1299.11 804.489L1289.67 839.723L1324.9 849.164Z" stroke="black" stroke-width="1.38289" stroke-miterlimit="1.5" stroke-linecap="square" stroke-dasharray="5.53 8.3"/>
<path d="M1287.15 990.07L1296.59 954.836L1261.36 945.396L1251.92 980.629L1287.15 990.07Z" stroke="black" stroke-width="1.38289" stroke-miterlimit="1.5" stroke-linecap="square" stroke-dasharray="5.53 8.3"/>
<path d="M1197.8 1041.65L1207.24 1006.42L1172.01 996.979L1162.57 1032.21L1197.8 1041.65Z" stroke="black" stroke-width="1.38289" stroke-miterlimit="1.5" stroke-linecap="square" stroke-dasharray="5.53 8.3"/>
<path d="M1178.93 1112.09L1188.37 1076.86L1153.13 1067.42L1143.69 1102.65L1178.93 1112.09Z" stroke="black" stroke-width="1.38289" stroke-miterlimit="1.5" stroke-linecap="square" stroke-dasharray="5.53 8.3"/>
<path d="M1273.31 759.843L1282.75 724.609L1247.52 715.168L1238.08 750.402L1273.31 759.843Z" stroke="black" stroke-width="1.38289" stroke-miterlimit="1.5" stroke-linecap="square" stroke-dasharray="5.53 8.3"/>
<path d="M1235.56 900.747L1245 865.513L1209.76 856.073L1200.32 891.306L1235.56 900.747Z" stroke="black" stroke-width="1.38289" stroke-miterlimit="1.5" stroke-linecap="square" stroke-dasharray="5.53 8.3"/>
<path d="M1254.44 830.28L1263.88 795.046L1228.64 785.605L1219.2 820.839L1254.44 830.28Z" stroke="black" stroke-width="1.38289" stroke-miterlimit="1.5" stroke-linecap="square" stroke-dasharray="5.53 8.3"/>
<path d="M1216.68 971.186L1226.12 935.952L1190.89 926.511L1181.45 961.745L1216.68 971.186Z" stroke="black" stroke-width="1.38289" stroke-miterlimit="1.5" stroke-linecap="square" stroke-dasharray="5.53 8.3"/>
<path d="M1127.33 1022.77L1136.78 987.538L1101.54 978.097L1092.1 1013.33L1127.33 1022.77Z" stroke="black" stroke-width="1.38289" stroke-miterlimit="1.5" stroke-linecap="square" stroke-dasharray="5.53 8.3"/>
<path d="M1108.46 1093.21L1117.9 1057.98L1082.67 1048.54L1073.23 1083.77L1108.46 1093.21Z" stroke="black" stroke-width="1.38289" stroke-miterlimit="1.5" stroke-linecap="square" stroke-dasharray="5.53 8.3"/>
<path d="M1202.85 740.962L1212.29 705.728L1177.05 696.287L1167.61 731.521L1202.85 740.962Z" stroke="black" stroke-width="1.38289" stroke-miterlimit="1.5" stroke-linecap="square" stroke-dasharray="5.53 8.3"/>
<path d="M1165.09 881.866L1174.53 846.632L1139.3 837.192L1129.86 872.425L1165.09 881.866Z" stroke="black" stroke-width="1.38289" stroke-miterlimit="1.5" stroke-linecap="square" stroke-dasharray="5.53 8.3"/>
<path d="M1183.97 811.4L1193.41 776.166L1158.18 766.725L1148.74 801.959L1183.97 811.4Z" stroke="black" stroke-width="1.38289" stroke-miterlimit="1.5" stroke-linecap="square" stroke-dasharray="5.53 8.3"/>
<path d="M1146.22 952.306L1155.66 917.072L1120.42 907.631L1110.98 942.865L1146.22 952.306Z" stroke="black" stroke-width="1.38289" stroke-miterlimit="1.5" stroke-linecap="square" stroke-dasharray="5.53 8.3"/>
<path d="M1132.38 722.081L1141.82 686.847L1106.58 677.407L1097.14 712.64L1132.38 722.081Z" stroke="black" stroke-width="1.38289" stroke-miterlimit="1.5" stroke-linecap="square" stroke-dasharray="5.53 8.3"/>
<path d="M1113.5 792.516L1122.94 757.283L1087.71 747.842L1078.27 783.076L1113.5 792.516Z" stroke="black" stroke-width="1.38289" stroke-miterlimit="1.5" stroke-linecap="square" stroke-dasharray="5.53 8.3"/>
<g style="mix-blend-mode:darken">
<rect x="1620.86" y="706.613" width="518" height="516" transform="rotate(105 1620.86 706.613)" fill="url(#paint1_linear_1_2205)"/>
</g>
</g>
</g>
<defs>
<linearGradient id="paint0_linear_1_2205" x1="255.56" y1="-44.4562" x2="255.56" y2="586.698" gradientUnits="userSpaceOnUse">
<stop stop-color="#CCFF00"/>
<stop offset="1" stop-color="white"/>
</linearGradient>
<linearGradient id="paint1_linear_1_2205" x1="1879.86" y1="592.613" x2="1879.86" y2="1068.61" gradientUnits="userSpaceOnUse">
<stop stop-color="#CCFF00"/>
<stop offset="1" stop-color="white"/>
</linearGradient>
</defs>
</svg>
